<svg width="32" height="33" viewBox="0 0 32 33" fill="none" xmlns="http://www.w3.org/2000/svg">
<path d="M25.7125 19.3185L16.7125 28.3185C16.5214 28.5033 16.2659 28.6066 16 28.6066C15.7341 28.6066 15.4787 28.5033 15.2875 28.3185L6.28751 19.3185C6.15185 19.1739 6.0599 18.9938 6.0223 18.7992C5.98469 18.6045 6.00297 18.4032 6.07501 18.2185C6.15151 18.0365 6.28018 17.8812 6.44479 17.7722C6.6094 17.6632 6.80259 17.6053 7.00001 17.606H15V5.60596C15 5.34074 15.1054 5.08639 15.2929 4.89885C15.4804 4.71131 15.7348 4.60596 16 4.60596C16.2652 4.60596 16.5196 4.71131 16.7071 4.89885C16.8947 5.08639 17 5.34074 17 5.60596V17.606H25C25.1974 17.6053 25.3906 17.6632 25.5552 17.7722C25.7198 17.8812 25.8485 18.0365 25.925 18.2185C25.9971 18.4032 26.0153 18.6045 25.9777 18.7992C25.9401 18.9938 25.8482 19.1739 25.7125 19.3185Z" fill="white"/>
</svg>
