<svg width="95" height="121" viewBox="0 0 95 121" fill="none" xmlns="http://www.w3.org/2000/svg">
<path fill-rule="evenodd" clip-rule="evenodd" d="M19.6243 41.5052C18.0151 47.4301 17.5505 53.6076 18.2554 59.7066C18.2554 60.391 18.6287 61.48 18.6287 62.0712C18.6287 62.6623 19.1265 64.0313 19.2821 64.6225C20.285 68.2078 22.0226 71.5454 24.3845 74.4232C26.2932 76.7536 28.7814 78.541 31.5992 79.6059C34.417 80.6708 37.4654 80.9758 40.4383 80.4903C45.1687 79.7509 49.7054 78.08 53.7854 75.5744C54.1898 75.3566 54.4076 75.2944 54.8121 75.1077C57.249 73.5103 60.1554 72.7864 63.0568 73.0542C64.4057 73.4371 65.6363 74.1541 66.6347 75.1388C65.9548 73.6186 64.8806 72.308 63.5235 71.343C61.9972 70.3237 60.3007 69.5861 58.5144 69.165C54.7188 67.9827 50.3319 67.5782 46.6918 66.2404C43.3754 65.248 40.5126 63.1228 38.6027 60.2355C36.757 56.9029 35.8838 53.1191 36.0826 49.3147L37.016 50.6214C37.3823 51.0814 37.7771 51.5178 38.1982 51.9282L40.8428 54.1373C47.0652 58.3376 57.1766 59.6132 65.2969 60.3599C66.8214 55.0084 67.8792 51.8971 65.8258 46.5767C64.3904 43.4344 62.1598 40.7211 59.3545 38.705C58.0054 37.6786 56.5687 36.7728 55.061 35.9981C53.5676 35.2203 51.9498 34.4114 50.2697 33.7269L45.3229 31.6112C41.9371 30.2321 38.7879 28.3319 35.9893 25.9796L34.8381 24.8907C34.1265 24.4023 33.4875 23.8157 32.9403 23.1483C31.6851 21.9042 30.7647 20.3631 30.2646 18.668C30.1085 17.6367 30.1085 16.5879 30.2646 15.5566C29.983 16.0109 29.7435 16.49 29.5491 16.9879C29.269 17.579 29.0513 17.9213 28.709 18.5124C28.3668 19.1036 27.8379 20.6904 27.2779 21.6238C26.2151 23.6462 25.2596 25.7233 24.4156 27.8464C23.5133 29.9621 22.6111 32.2334 21.8644 34.4425C21.1177 36.6515 20.4954 39.2339 19.6865 41.5052" fill="#CED5D1"/>
<path fill-rule="evenodd" clip-rule="evenodd" d="M40.4384 17.9835C39.6295 19.1347 37.3272 21.9972 35.9272 23.6773L37.0783 24.704C38.3539 25.6997 39.6295 26.6642 40.9984 27.5354C42.6306 28.5538 44.3482 29.4282 46.1319 30.1489H46.3808C49.128 26.9878 51.6245 23.6173 53.8477 20.0681L55.87 23.9262C57.2486 26.4254 58.7975 28.8268 60.5057 31.1134C60.9102 31.549 61.3458 32.3268 61.7502 32.7624L67.0704 39.2962C67.5541 39.8226 68.0109 40.373 68.4393 40.9452L71.2083 44.0566C71.3764 44.3656 71.5744 44.6574 71.7994 44.9277C72.0668 45.1376 72.298 45.3898 72.4839 45.6745C72.7328 46.0478 75.9684 50.1237 76.5596 50.9949C80.7781 56.3485 83.7728 62.5612 85.3332 69.1962C86.0828 74.1581 85.6783 79.2261 84.1509 84.0062C81.1299 93.1054 75.4867 101.109 67.9306 107.01C60.3745 112.911 51.2427 116.447 41.6829 117.173C34.4414 117.773 27.1509 117.077 20.1533 115.12C19.0955 114.84 18.1622 114.528 17.0421 114.186C15.9221 113.844 14.8332 113.284 14.2109 113.128L10.6019 111.479C9.97967 111.168 9.51299 110.919 8.95297 110.577C8.40338 110.211 7.81995 109.898 7.21069 109.644C8.50963 110.95 9.94961 112.108 11.5042 113.097C16.6953 116.533 22.5434 118.853 28.678 119.911C38.6157 121.731 48.8441 121.155 58.5146 118.231C64.6103 116.244 70.3385 113.269 75.4706 109.426C75.6486 109.256 75.8472 109.11 76.0618 108.99L77.8974 107.559C78.7063 106.875 79.4219 106.159 80.2619 105.443C81.1019 104.728 80.9464 104.759 81.3508 104.354C83.9643 101.773 86.262 98.8904 88.1955 95.767C91.8042 90.0389 93.9174 83.4965 94.3414 76.7396C94.7654 69.9827 93.4866 63.2274 90.6222 57.0931C88.71 52.857 86.4301 48.7967 83.8087 44.9589C82.782 43.5276 81.8175 41.8475 80.6975 40.3852C78.1774 36.496 75.6262 33.0424 73.0128 28.9666C72.515 28.1887 72.0794 27.4109 71.5505 26.6331L70.8349 25.4819C69.5594 23.1795 67.1948 19.2592 66.1681 16.8946C65.7637 15.9301 65.297 15.2767 64.9548 14.3433C64.6125 13.4099 64.3636 13.161 63.8969 11.6986C63.5858 10.7963 63.1503 9.89406 62.808 8.96066C62.2956 6.15728 61.1106 3.52014 59.3546 1.27565C58.079 0.217794 57.3323 0.404474 56.5545 0H54.4078C53.1944 0.528928 52.6966 0.311134 51.4521 1.18231C50.6045 1.76128 49.8581 2.47611 49.2431 3.29802C44.9186 8.74286 43.7363 13.161 40.4384 17.9835Z" fill="#CED5D1"/>
<path fill-rule="evenodd" clip-rule="evenodd" d="M72.7015 90.5711C80.1684 76.0101 72.4526 65.4315 58.8877 62.5691C53.3498 61.4179 44.514 60.64 40.4694 56.3464C40.2188 56.0368 39.9255 55.7644 39.5982 55.5374C41.0221 58.1343 43.1887 60.2469 45.8207 61.6045C52.4787 65.4937 63.6479 64.7159 68.0969 70.9386C71.8304 76.0101 71.8926 83.0417 63.119 91.1623C52.1364 101.336 30.6691 103.608 19.562 95.487C18.5996 94.6992 17.7329 93.8011 16.9797 92.8113C11.504 87.1175 13.2152 74.6722 15.7975 66.8627C16.2891 65.7959 16.8396 64.7571 17.4464 63.7514C17.3901 63.4439 17.3068 63.142 17.1975 62.8491V62.538V62.2268C17.1975 61.9468 17.1975 61.5112 17.1975 61.2312C17.1975 60.9512 17.042 60.5156 16.9797 60.1422C16.3043 54.7433 16.578 49.2679 17.7887 43.9633L13.713 48.3502C11.7559 50.783 9.95802 53.3396 8.33058 56.0041C1.85926 66.4582 -1.9053 79.277 0.988122 90.4778C1.36915 91.9712 1.87923 93.4286 2.51261 94.8337C3.26317 96.5114 4.20261 98.0981 5.3127 99.5629L8.23724 102.674L10.8818 104.697C26.7801 115.337 61.9367 111.635 72.7015 90.6333" fill="#CED5D1"/>
</svg>
