<svg width="471" height="266" viewBox="0 0 471 266" fill="none" xmlns="http://www.w3.org/2000/svg">
<path d="M70.7077 114.179C69.1979 114.748 67.9102 115.789 67.0343 117.149C66.3206 118.383 65.5954 120.512 66.824 121.23C68.0527 121.949 69.5791 120.313 70.2954 119.109C71.0656 117.684 71.3651 116.05 71.1505 114.443C71.1469 114.392 71.1311 114.343 71.1045 114.3C71.0779 114.256 71.0412 114.22 70.9977 114.194C70.9542 114.168 70.9051 114.153 70.8545 114.151C70.804 114.148 70.7536 114.158 70.7077 114.179ZM73.0047 93.8469C71.6144 93.9734 71.3119 96.2102 71.4396 97.613C71.6523 99.2202 72.367 100.719 73.4809 101.893C73.5133 101.932 73.5548 101.963 73.6017 101.982C73.6485 102.002 73.6994 102.009 73.75 102.005C73.8005 102 73.8491 101.983 73.8917 101.956C73.9343 101.928 73.9695 101.89 73.9943 101.846C74.8781 100.491 75.3088 98.8873 75.2239 97.2686C75.0963 95.8658 74.3892 93.7209 73.0047 93.8469ZM67.7792 107.309C67.8264 107.291 67.8683 107.261 67.9013 107.223C67.9344 107.184 67.9574 107.138 67.9685 107.089C67.9795 107.039 67.9781 106.988 67.9646 106.939C67.951 106.89 67.9256 106.845 67.8906 106.808C66.8788 105.545 65.4949 104.635 63.9374 104.21C62.5716 103.902 60.3263 103.902 60.015 105.275C59.7036 106.647 61.7349 107.62 63.0939 107.917C64.6806 108.221 66.3221 108.008 67.7792 107.309ZM115.061 89.2016C105.953 92.6665 96.4574 95.0007 86.7846 96.1523L86.6634 96.1634C85.1129 96.3112 83.5559 95.9519 82.2242 95.1389C80.8926 94.326 79.8574 93.1028 79.273 91.6517C75.6812 82.5511 73.2086 73.0448 71.9099 63.344C71.8695 62.8997 71.6551 62.4896 71.3139 62.2038C70.9726 61.9181 70.5325 61.7802 70.0903 61.8205C69.6481 61.8607 69.2402 62.0758 68.9561 62.4184C68.672 62.761 68.5352 63.2031 68.5756 63.6474C69.055 73.4234 68.3388 83.2205 66.4431 92.8192C66.1319 94.3528 65.3351 95.7437 64.1717 96.784C63.0083 97.8243 61.5408 98.4581 59.9884 98.5908L59.8615 98.6023C50.1416 99.2158 40.3826 98.6337 30.8011 96.8691C30.3768 96.7911 29.939 96.8806 29.579 97.119C29.2191 97.3574 28.9647 97.7262 28.8688 98.1487C28.773 98.5711 28.8433 99.0146 29.0648 99.3865C29.2864 99.7585 29.6422 100.03 30.0581 100.145C39.4625 102.729 48.5179 106.458 57.0224 111.251C58.3871 112.045 59.4601 113.261 60.0811 114.717C60.7021 116.173 60.8379 117.791 60.4681 119.331C58.0557 128.811 54.4968 137.958 49.8709 146.567C49.655 146.949 49.5971 147.402 49.7097 147.828C49.8223 148.253 50.0963 148.618 50.473 148.843C50.8498 149.068 51.2992 149.135 51.7248 149.031C52.1503 148.927 52.5182 148.66 52.7495 148.286C58.0833 140.102 64.3942 132.605 71.5414 125.962C72.7103 124.9 74.1912 124.249 75.7611 124.106C77.3311 123.963 78.9052 124.336 80.2466 125.17C88.4829 130.402 96.0521 136.626 102.786 143.704C102.959 143.885 103.171 144.025 103.406 144.113C103.64 144.201 103.891 144.234 104.141 144.211C104.494 144.18 104.827 144.035 105.092 143.798C105.415 143.514 105.617 143.117 105.656 142.688C105.694 142.259 105.567 141.831 105.301 141.493C99.2011 133.858 94.05 125.504 89.9615 116.618C89.3241 115.176 89.1657 113.568 89.5098 112.03C89.854 110.492 90.6822 109.107 91.8718 108.08C99.3708 101.843 107.601 96.5499 116.38 92.3195C116.763 92.1291 117.06 91.7981 117.208 91.3946C117.356 90.9911 117.345 90.5458 117.176 90.1502C117.008 89.7546 116.695 89.4388 116.302 89.2678C115.909 89.0967 115.465 89.0834 115.063 89.2306L115.061 89.2016ZM89.7044 105.484C87.948 106.983 86.7232 109.015 86.2136 111.274C85.7039 113.533 85.937 115.898 86.8778 118.014C88.8415 122.374 91.0874 126.6 93.6012 130.664C89.9228 127.624 86.0506 124.829 82.0094 122.297C80.0535 121.083 77.7588 120.539 75.4701 120.748C73.1814 120.956 71.0225 121.905 69.318 123.452C65.797 126.665 62.4903 130.108 59.4194 133.757C61.1582 129.306 62.6045 124.744 63.749 120.102C64.2941 117.851 64.0978 115.483 63.1897 113.352C62.2817 111.222 60.7108 109.444 58.7128 108.286C54.575 105.915 50.2864 103.819 45.8748 102.014C50.6272 102.303 55.3932 102.277 60.1417 101.937L60.3263 101.921C62.5954 101.722 64.739 100.792 66.4371 99.2676C68.1351 97.7436 69.2964 95.7082 69.7476 93.4653C70.7104 88.7788 71.3648 84.0334 71.7064 79.2599C72.9067 83.8925 74.4068 88.4417 76.1971 92.8784C77.0468 95.0034 78.5576 96.7958 80.5038 97.9881C82.45 99.1804 84.7273 99.7086 86.9956 99.4938L87.1283 99.4817C91.8602 98.959 96.5525 98.124 101.175 96.982C97.1702 99.5606 93.3385 102.401 89.7044 105.484ZM139.87 80.3337C139.416 79.2678 138.681 78.3469 137.744 77.6707C136.807 76.9946 135.703 76.5891 134.553 76.4983C128.741 76.0278 123.018 74.123 117.488 72.2826C111.28 70.2174 105.413 68.2615 100.158 68.7397C99.3213 68.816 98.4921 68.9579 97.6778 69.1641C97.286 67.6233 96.6796 66.1457 95.8766 64.775C93.5537 60.7257 89.6587 57.0415 85.5113 53.1406C81.2721 49.1253 76.8864 44.9714 73.7114 40.0586C73.0854 39.0845 72.2061 38.3009 71.1689 37.7927C70.1317 37.2845 68.9761 37.0711 67.8273 37.1757C66.6785 37.2802 65.5804 37.6987 64.652 38.3858C63.7235 39.0728 63.0001 40.0023 62.5603 41.0734C60.3184 46.4791 56.7546 51.3564 53.3098 56.0709C49.9577 60.6542 46.7917 64.981 45.2148 69.3852C44.678 70.8799 44.3484 72.4419 44.2354 74.0273C43.4147 73.9763 42.5913 73.9887 41.7725 74.0644C36.5171 74.5426 31.1 77.5254 25.3666 80.6772C20.2587 83.4799 14.9805 86.3916 9.34802 87.9036C8.23214 88.1991 7.21826 88.7959 6.41623 89.6292C5.6142 90.4625 5.05459 91.5006 4.79798 92.6311C4.54137 93.7616 4.59758 94.9413 4.96048 96.0426C5.32338 97.1438 5.97915 98.1245 6.85678 98.8786C11.2753 102.69 14.7996 107.607 18.1985 112.359C21.0048 116.288 23.6569 119.992 26.6373 122.766C28.3106 124.386 30.2685 125.68 32.4115 126.583C31.8313 128.06 31.4576 129.61 31.301 131.19C30.8168 135.84 31.8092 141.121 32.8647 146.711C33.9691 152.456 35.0924 158.408 34.7698 164.259C34.7047 165.417 34.9569 166.571 35.4989 167.596C36.0409 168.62 36.8519 169.476 37.8439 170.071C38.8358 170.665 39.9707 170.975 41.1251 170.966C42.2795 170.958 43.4092 170.632 44.3914 170.023C49.3492 166.977 55.1032 165.138 60.6532 163.359C66.0511 161.635 71.1433 160.002 74.982 157.379C76.294 156.488 77.475 155.417 78.4906 154.196C79.7131 155.212 81.0698 156.052 82.5219 156.693C86.7669 158.598 92.0643 159.285 97.689 159.989C103.469 160.737 109.46 161.507 114.886 163.608C115.793 163.965 116.77 164.104 117.739 164.015C118.642 163.931 119.517 163.653 120.304 163.2C121.092 162.747 121.772 162.129 122.301 161.388C122.829 160.647 123.193 159.8 123.367 158.906C123.541 158.011 123.521 157.089 123.31 156.202C121.951 150.481 121.985 144.452 122.01 138.599C122.039 132.91 122.068 127.536 120.747 123.051C120.309 121.525 119.664 120.067 118.829 118.719C120.772 117.443 122.464 115.817 123.819 113.922C126.244 110.657 128.182 106.512 130.235 102.164C132.726 96.8754 135.293 91.4049 138.963 86.857C139.693 85.9572 140.163 84.8735 140.323 83.7234C140.483 82.5734 140.326 81.401 139.87 80.3337ZM135.063 83.6934C131.014 88.7376 128.191 94.7223 125.701 100.022C121.885 108.143 118.592 115.158 112.436 115.718C111.272 115.807 110.1 115.717 108.963 115.45C108.834 115.419 108.701 115.415 108.571 115.437C108.441 115.459 108.317 115.506 108.205 115.577C108.094 115.647 107.997 115.739 107.922 115.848C107.846 115.956 107.792 116.078 107.764 116.207C107.739 116.311 107.731 116.419 107.74 116.525C107.76 116.737 107.846 116.938 107.986 117.099C108.126 117.259 108.313 117.371 108.519 117.419C117.091 119.38 117.031 127.86 116.996 138.6C116.947 144.449 116.936 151.107 118.428 157.4C118.475 157.582 118.481 157.771 118.447 157.955C118.412 158.139 118.338 158.313 118.228 158.465C118.06 158.702 117.818 158.876 117.54 158.96C117.262 159.043 116.964 159.031 116.694 158.926C110.666 156.604 104.127 155.756 98.3352 155.009C87.7403 153.635 79.3599 152.562 78.5597 143.769C78.5575 143.63 78.5268 143.492 78.4693 143.365C78.4118 143.238 78.3288 143.124 78.2256 143.031C78.1223 142.938 78.0011 142.867 77.8693 142.823C77.7376 142.779 77.5982 142.762 77.46 142.775C77.3218 142.788 77.1877 142.829 77.066 142.896C76.9444 142.963 76.8379 143.055 76.7532 143.165C76.6685 143.275 76.6075 143.402 76.5739 143.537C76.5402 143.673 76.5348 143.814 76.5579 143.951C77.3581 152.745 69.3152 155.318 59.136 158.576C53.5745 160.356 47.2668 162.374 41.7569 165.745C41.5548 165.871 41.322 165.939 41.0839 165.941C40.8458 165.943 40.6117 165.88 40.4071 165.757C40.2025 165.634 40.0355 165.458 39.9241 165.246C39.8128 165.034 39.7615 164.796 39.7759 164.557C40.1129 158.098 38.8792 151.57 37.7963 145.807C35.8062 135.251 34.2337 126.92 42.3107 123.444C42.505 123.359 42.6677 123.215 42.7754 123.032C42.883 122.849 42.9302 122.636 42.9102 122.425C42.9022 122.318 42.877 122.214 42.8355 122.116C42.7294 121.87 42.5307 121.677 42.2829 121.577C42.0352 121.478 41.7586 121.482 41.5136 121.587C40.4458 122.058 39.3114 122.358 38.1512 122.478C31.9959 123.038 27.4901 116.732 22.2715 109.434C18.8658 104.671 15.0009 99.2713 10.1101 95.064C9.92894 94.9087 9.79348 94.7066 9.71847 94.4795C9.64346 94.2525 9.63176 94.0092 9.68463 93.776C9.73435 93.5421 9.8483 93.3269 10.0136 93.1549C10.1789 92.9828 10.3889 92.8608 10.6198 92.8025C16.8658 91.1295 22.6426 87.9445 27.7552 85.1297C33.023 82.2307 37.994 79.5223 42.2053 79.1391C45.4473 78.844 48.0246 79.9363 50.3236 82.5734C50.5059 82.7367 50.7409 82.828 50.985 82.8304C51.2291 82.8328 51.4657 82.7461 51.6509 82.5865C51.836 82.4268 51.9572 82.205 51.9918 81.9623C52.0264 81.7195 51.9722 81.4723 51.8392 81.2665C46.0462 74.6223 51.0428 67.7853 57.3869 59.1365C60.8365 54.4099 64.7525 49.0564 67.2222 43.0864C67.3104 42.8619 67.4589 42.6666 67.6512 42.522C67.8434 42.3775 68.0718 42.2894 68.311 42.2677C68.5502 42.2459 68.7908 42.2913 69.006 42.3987C69.2212 42.5062 69.4025 42.6716 69.5297 42.8764C73.026 48.2509 77.844 52.8096 82.0843 56.8365C89.8623 64.2001 96.011 70.023 91.5355 77.6016C91.4254 77.7802 91.3751 77.9896 91.3921 78.1991C91.4152 78.4095 91.5033 78.6073 91.6441 78.7649C91.7848 78.9224 91.9711 79.0318 92.1768 79.0775C92.3825 79.1233 92.5972 79.1032 92.7908 79.0201C92.9844 78.9369 93.1472 78.7949 93.2562 78.614C95.0415 75.6052 97.385 74.0652 100.621 73.7707C104.833 73.3874 110.219 75.1767 115.915 77.0546C121.457 78.8882 127.738 80.9877 134.154 81.5084C134.393 81.5229 134.623 81.6045 134.817 81.7438C135.012 81.8832 135.164 82.0747 135.256 82.2966C135.361 82.5234 135.399 82.776 135.365 83.0238C135.33 83.2716 135.226 83.5042 135.063 83.6934ZM78.934 113.43C78.8853 113.418 78.8342 113.417 78.7852 113.429C78.7361 113.44 78.6908 113.464 78.653 113.497C78.6152 113.531 78.5863 113.573 78.5686 113.621C78.551 113.668 78.5452 113.719 78.5519 113.769C78.6281 115.39 79.2179 116.943 80.2351 118.204C81.1597 119.289 82.9761 120.585 84.0261 119.659C85.0762 118.734 84.0105 116.738 83.0832 115.689C81.9736 114.512 80.5203 113.721 78.934 113.43ZM83.7979 102.386C82.3416 103.083 81.144 104.228 80.3785 105.654C80.3507 105.697 80.3338 105.745 80.3293 105.796C80.3248 105.847 80.3328 105.898 80.3526 105.944C80.3724 105.991 80.4034 106.032 80.4428 106.064C80.4822 106.096 80.5289 106.118 80.5786 106.127C82.1343 106.56 83.7867 106.479 85.2924 105.897C86.5796 105.341 88.3957 104.013 87.8495 102.742C87.3034 101.47 85.0815 101.854 83.7979 102.386Z" fill="#9BD3B9"/>
<path d="M272.22 66.3504C272.379 66.0421 272.414 65.685 272.317 65.3531C272.219 65.0212 271.997 64.74 271.697 64.5677C271.397 64.3954 271.041 64.3453 270.704 64.4277C270.366 64.5102 270.073 64.7189 269.885 65.0106C269.561 65.684 269.339 66.4009 269.225 67.1381C269.142 67.5732 269.127 68.0182 269.182 68.4572C269.187 68.4999 269.203 68.5408 269.227 68.5766C269.251 68.6124 269.283 68.6422 269.32 68.6639C269.357 68.6856 269.399 68.6985 269.442 68.7016C269.486 68.7048 269.529 68.6981 269.569 68.6822C269.977 68.5093 270.357 68.2754 270.694 67.9885C271.282 67.5217 271.797 66.9694 272.22 66.3504ZM278.581 71.351C278.403 71.0427 278.109 70.818 277.764 70.7264C277.419 70.6348 277.051 70.6839 276.741 70.8628C276.123 71.2852 275.57 71.7972 275.103 72.3819C274.815 72.7175 274.581 73.0959 274.41 73.5032C274.393 73.5432 274.386 73.5864 274.389 73.6295C274.392 73.6725 274.405 73.7143 274.427 73.7516C274.448 73.789 274.478 73.8209 274.514 73.845C274.55 73.8691 274.59 73.8847 274.633 73.8908C275.072 73.9446 275.516 73.9312 275.951 73.8511C276.691 73.7385 277.411 73.5161 278.086 73.1914C278.392 73.0082 278.614 72.7119 278.703 72.3671C278.792 72.0223 278.741 71.657 278.561 71.3507L278.581 71.351ZM263.197 65.5385C263.471 64.8436 263.64 64.1127 263.7 63.3694C263.684 63.0236 263.536 62.6976 263.285 62.4591C263.035 62.2206 262.701 62.0878 262.354 62.0883C262.007 62.0888 261.673 62.2225 261.421 62.4618C261.169 62.701 261.019 63.0274 261.001 63.3732C261.055 64.118 261.221 64.8499 261.494 65.5445C261.642 65.9601 261.852 66.3506 262.118 66.7023C262.145 66.7361 262.179 66.7634 262.218 66.782C262.257 66.8006 262.3 66.8101 262.343 66.8098C262.386 66.8096 262.429 66.7995 262.468 66.7803C262.507 66.7612 262.541 66.7335 262.567 66.6994C262.829 66.3458 263.035 65.9541 263.177 65.5382L263.197 65.5385ZM281.076 80.7068C281.077 80.5302 281.043 80.3554 280.976 80.1923C280.908 80.0292 280.81 79.881 280.685 79.7562C280.56 79.6314 280.412 79.5325 280.249 79.4651C280.085 79.3976 279.91 79.363 279.733 79.3632C278.986 79.4203 278.252 79.589 277.555 79.8639C277.137 80.0128 276.745 80.2245 276.391 80.4914C276.357 80.5183 276.33 80.5525 276.311 80.5914C276.292 80.6303 276.282 80.673 276.283 80.7161C276.283 80.7593 276.293 80.8018 276.312 80.8405C276.331 80.8792 276.358 80.9131 276.392 80.9395C276.744 81.2057 277.137 81.4146 277.555 81.5583C278.249 81.8308 278.982 81.9968 279.727 82.0508C280.08 82.0446 280.417 81.9002 280.666 81.6488C280.915 81.3973 281.055 81.059 281.056 80.7065L281.076 80.7068ZM231.627 34.0461L287.407 130.661C287.834 131.398 288.537 131.935 289.362 132.153C290.187 132.372 291.067 132.254 291.808 131.826C305.424 123.965 315.374 111.043 319.47 95.9026C323.566 80.7621 321.472 64.6436 313.648 51.0929C305.825 37.5423 292.913 27.6694 277.753 23.6464C262.593 19.6233 246.427 21.7796 232.811 29.6408C232.442 29.8518 232.117 30.1334 231.857 30.4692C231.597 30.805 231.405 31.1885 231.293 31.5977C231.181 32.0069 231.151 32.4339 231.205 32.8539C231.259 33.274 231.395 33.6791 231.606 34.0458L231.627 34.0461ZM251.085 59.724C256.563 56.7896 262.961 56.0912 268.926 57.7766C274.891 59.462 279.955 63.3989 283.047 68.7546C286.139 74.1102 287.017 80.4645 285.494 86.4731C283.971 92.4817 280.167 97.6734 274.887 100.95L251.085 59.724ZM275.688 102.338C281.316 98.8369 285.369 93.296 286.99 86.886C288.611 80.4759 287.673 73.6987 284.375 67.986C281.077 62.2733 275.676 58.0726 269.315 56.2713C262.953 54.4701 256.128 55.2093 250.282 58.3329L237.445 36.099C249.218 29.5569 263.078 27.8818 276.036 31.4349C288.993 34.9881 300.011 43.4849 306.713 55.0932C313.415 66.7015 315.264 80.4914 311.863 93.4896C308.461 106.488 300.081 117.653 288.528 124.578L275.688 102.338ZM276.68 27.5361C287.153 30.3127 296.559 36.1102 303.725 44.2039C310.891 52.2977 315.498 62.3287 316.97 73.0434C318.442 83.7581 316.715 94.6812 312.003 104.448C307.291 114.214 299.804 122.39 290.478 127.955L289.332 125.969C301.282 118.845 309.96 107.326 313.49 93.9036C317.021 80.4812 315.118 66.234 308.196 54.2432C301.273 42.2523 289.885 33.4814 276.496 29.8274C263.107 26.1734 248.792 27.9298 236.647 34.7169L235.501 32.7309C248.039 25.6853 262.829 23.8213 276.687 27.5404L276.68 27.5361ZM278.034 88.232C277.36 87.9121 276.642 87.6924 275.903 87.5798C275.467 87.4996 275.021 87.4868 274.581 87.5419C274.538 87.5479 274.497 87.5635 274.461 87.5876C274.425 87.6117 274.395 87.6436 274.373 87.6809C274.351 87.7182 274.338 87.76 274.335 87.8031C274.331 87.8461 274.338 87.8893 274.354 87.9294C274.525 88.3357 274.758 88.7133 275.044 89.0489C275.509 89.6314 276.059 90.1402 276.676 90.5583C276.83 90.6464 276.999 90.7034 277.174 90.7262C277.35 90.749 277.528 90.7371 277.699 90.6911C277.871 90.645 278.031 90.5659 278.172 90.4581C278.313 90.3503 278.431 90.216 278.52 90.0629C278.699 89.7536 278.749 89.3863 278.657 89.0418C278.612 88.8712 278.533 88.7114 278.426 88.5714C278.318 88.4314 278.184 88.314 278.031 88.2259L278.034 88.232Z" fill="#9BD3B9"/>
<path d="M208.501 191.454C202.908 191.963 197.421 194.608 193.053 198.905C188.854 203.029 185.21 209.301 181.365 215.942C179.104 219.84 176.761 223.873 174.14 227.731C172.762 229.749 171.284 231.695 169.71 233.563C169.394 233.937 169.191 234.394 169.125 234.881C169.06 235.367 169.135 235.862 169.341 236.308C169.547 236.753 169.876 237.129 170.289 237.392C170.702 237.656 171.181 237.794 171.669 237.792C173.062 237.781 174.525 237.707 176.018 237.571C179.216 237.266 182.389 236.736 185.513 235.983C193.148 234.168 201.597 229.478 208.697 223.119C215.393 217.116 220.308 210.021 221.845 204.14C223.136 199.182 221.802 196.734 219.058 194.186C216.801 192.081 212.851 191.058 208.501 191.454ZM220.01 203.653C218.567 209.189 213.868 215.931 207.438 221.69C200.568 227.846 192.417 232.379 185.082 234.121C182.034 234.855 178.938 235.371 175.816 235.664C174.372 235.796 172.961 235.865 171.621 235.878C171.497 235.881 171.376 235.847 171.272 235.781C171.168 235.714 171.086 235.618 171.036 235.504C170.981 235.39 170.961 235.261 170.978 235.135C170.995 235.009 171.049 234.891 171.132 234.796C172.747 232.878 174.265 230.88 175.68 228.809C178.338 224.895 180.696 220.833 182.979 216.905C186.771 210.378 190.349 204.213 194.355 200.268C198.361 196.322 203.489 193.835 208.647 193.366C212.469 193.018 215.872 193.853 217.748 195.597C220.142 197.784 221.08 199.561 220.01 203.653ZM248.741 162.238C248.554 161.802 248.202 161.458 247.763 161.282C247.323 161.106 246.833 161.112 246.398 161.3C243.553 162.532 240.42 165.695 237.09 170.681C235.959 172.38 235.005 173.993 234.303 175.237C230.713 172.247 226.553 170.024 222.08 168.704C216.962 167.188 211.603 166.677 206.294 167.197C195.158 168.21 184.433 173.282 176.092 181.497C169.559 187.92 164.909 195.925 160.412 203.664C158.264 207.36 156.238 210.856 154.096 214.005C151.175 218.307 147.442 221.962 144.717 224.639C142.456 226.858 140.959 228.324 140.176 229.782C136.356 236.85 136.355 243.953 140.173 249.777C143.135 254.3 148.26 257.792 154.995 259.903C161.574 261.958 169.603 262.627 178.213 261.844C182.56 261.435 186.873 260.717 191.12 259.696C202.714 256.943 214.696 250.413 224.849 241.316C235.264 231.967 242.528 220.986 245.305 210.344C246.927 204.126 247.009 198.143 245.554 192.563C244.126 187.092 241.247 182.135 236.989 177.758C239.212 173.674 243.855 166.31 247.81 164.602C248.026 164.509 248.222 164.374 248.386 164.205C248.55 164.035 248.679 163.835 248.765 163.615C248.852 163.396 248.894 163.161 248.89 162.925C248.886 162.688 248.836 162.455 248.741 162.238ZM240.706 209.12C238.165 218.863 231.408 229.023 221.684 237.739C212.107 246.312 200.864 252.463 190.023 255.039C185.994 256.002 181.902 256.677 177.777 257.06C161.988 258.497 149.096 254.692 144.126 247.125C141.292 242.779 141.352 237.576 144.34 232.053C144.781 231.232 146.284 229.758 148.024 228.049C150.903 225.235 154.82 221.385 158.009 216.691C160.242 213.401 162.311 209.838 164.504 206.068C168.841 198.599 173.326 190.874 179.401 184.903C186.964 177.469 196.666 172.872 206.713 171.958C216.612 171.057 225.927 173.92 232.274 179.815C240.747 187.666 243.658 197.801 240.706 209.12Z" fill="#9BD3B9"/>
<path d="M431.921 177.681L431.808 177.691C431.641 177.706 431.479 177.754 431.331 177.832C431.183 177.91 431.052 178.017 430.945 178.147C430.833 178.282 430.748 178.438 430.697 178.605C430.646 178.773 430.628 178.95 430.646 179.125L430.65 179.171C430.664 179.346 430.713 179.517 430.794 179.673C430.875 179.829 430.986 179.967 431.121 180.079C431.249 180.188 431.397 180.27 431.557 180.321C431.717 180.372 431.885 180.391 432.052 180.376L432.165 180.366L435.576 179.754C435.832 179.707 436.062 179.566 436.219 179.357C436.377 179.149 436.451 178.889 436.427 178.629C436.403 178.368 436.283 178.126 436.091 177.949C435.898 177.773 435.647 177.675 435.387 177.675L431.921 177.681ZM433.589 191.37L430.581 189.641C430.355 189.51 430.095 189.452 429.835 189.476C429.604 189.498 429.384 189.581 429.195 189.717C429.006 189.853 428.857 190.036 428.761 190.248L428.74 190.288C428.662 190.456 428.619 190.638 428.615 190.823C428.611 191.008 428.645 191.192 428.715 191.364C428.782 191.53 428.884 191.679 429.013 191.803C429.142 191.926 429.296 192.021 429.464 192.081L432.718 193.261C432.874 193.323 433.042 193.348 433.21 193.335C433.43 193.302 433.634 193.201 433.794 193.046C433.954 192.89 434.062 192.689 434.102 192.469C434.154 192.254 434.13 192.027 434.034 191.827C433.939 191.627 433.779 191.466 433.58 191.371L433.589 191.37ZM432.051 183.749C431.876 183.705 431.695 183.697 431.517 183.727C431.34 183.758 431.171 183.824 431.021 183.924C430.871 184.024 430.744 184.153 430.647 184.305C430.55 184.457 430.485 184.628 430.458 184.807L430.462 184.853C430.43 185.035 430.436 185.222 430.479 185.402C430.522 185.582 430.602 185.752 430.713 185.899C430.819 186.039 430.953 186.156 431.106 186.241C431.259 186.327 431.429 186.379 431.603 186.395L435.051 186.693C435.126 186.692 435.202 186.685 435.277 186.672C435.518 186.646 435.742 186.533 435.907 186.354C436.072 186.176 436.168 185.943 436.176 185.699C436.205 185.454 436.141 185.207 435.998 185.007C435.855 184.806 435.642 184.667 435.402 184.615L432.051 183.749ZM422.22 198.697C421.986 198.719 421.762 198.804 421.571 198.943L421.531 198.968C421.382 199.071 421.255 199.204 421.16 199.359C421.064 199.513 421.001 199.687 420.976 199.867C420.952 200.044 420.966 200.223 421.017 200.394C421.067 200.565 421.153 200.723 421.269 200.859L423.5 203.52C423.598 203.651 423.728 203.755 423.878 203.822C424.027 203.889 424.191 203.918 424.354 203.904C424.543 203.883 424.723 203.817 424.88 203.71C425.038 203.603 425.167 203.46 425.257 203.292C425.333 203.139 425.368 202.968 425.358 202.797C425.347 202.625 425.292 202.46 425.198 202.317L423.45 199.311C423.326 199.1 423.144 198.93 422.926 198.821C422.707 198.712 422.462 198.669 422.22 198.697ZM426.627 194.596C426.454 194.612 426.285 194.662 426.131 194.744C425.976 194.825 425.84 194.937 425.729 195.072L425.699 195.109C425.579 195.25 425.491 195.416 425.44 195.593C425.388 195.771 425.375 195.958 425.4 196.142C425.422 196.319 425.482 196.489 425.574 196.642C425.667 196.794 425.79 196.925 425.936 197.027L428.778 199.017C428.976 199.166 429.221 199.24 429.468 199.226C429.674 199.197 429.868 199.111 430.028 198.979C430.189 198.847 430.311 198.673 430.38 198.477C430.448 198.293 430.458 198.093 430.41 197.904C430.362 197.714 430.257 197.543 430.11 197.415L427.645 194.962C427.514 194.827 427.354 194.722 427.178 194.657C427.002 194.592 426.813 194.566 426.626 194.583L426.627 194.596ZM433.82 170.901C433.745 170.9 433.669 170.907 433.594 170.922L430.257 171.832C430.089 171.881 429.932 171.964 429.797 172.075C429.662 172.187 429.551 172.325 429.471 172.481C429.388 172.646 429.34 172.827 429.33 173.012C429.32 173.197 429.348 173.382 429.413 173.556L429.417 173.602C429.472 173.775 429.564 173.935 429.686 174.069C429.808 174.204 429.958 174.311 430.125 174.382C430.291 174.453 430.472 174.488 430.653 174.483C430.834 174.478 431.012 174.434 431.174 174.354L434.309 172.881C434.536 172.786 434.72 172.61 434.825 172.386C434.929 172.162 434.947 171.907 434.874 171.671C434.816 171.44 434.678 171.237 434.485 171.098C434.293 170.959 434.058 170.892 433.821 170.91L433.82 170.901ZM436.351 166.224C435.034 166.836 433.543 167.528 431.935 168.323C430.326 169.119 428.567 169.928 426.733 170.838C425.371 171.509 423.948 172.203 422.493 172.921L422.37 172.873C422.052 172.742 421.777 172.522 421.579 172.239C421.381 171.956 421.268 171.622 421.254 171.277L421.242 171.146C422.406 170.014 423.538 168.901 424.627 167.834C426.098 166.406 427.467 165.03 428.733 163.761C429.998 162.491 431.149 161.317 432.165 160.274C433.181 159.232 434.06 158.311 434.785 157.558C435.511 156.805 436.068 156.198 436.453 155.79L437.037 155.159L436.364 155.692C435.927 156.045 435.281 156.554 434.476 157.221C433.671 157.889 432.679 158.687 431.568 159.608C430.457 160.528 429.19 161.598 427.836 162.769C426.481 163.94 424.999 165.195 423.46 166.562C422.706 167.228 421.923 167.906 421.112 168.608C421.1 168.358 421.037 168.114 420.926 167.89C420.815 167.666 420.659 167.468 420.468 167.308C420.276 167.147 420.054 167.029 419.815 166.96C419.576 166.89 419.325 166.872 419.078 166.905C419.622 166.007 420.144 165.111 420.658 164.215C421.709 162.448 422.679 160.764 423.58 159.206C424.481 157.647 425.285 156.22 426.001 154.946C426.716 153.672 427.325 152.56 427.811 151.641C428.298 150.723 428.7 149.995 428.968 149.499L429.367 148.738L428.856 149.429C428.525 149.883 428.032 150.543 427.426 151.396C426.819 152.249 426.073 153.28 425.24 154.476C424.407 155.672 423.457 157.015 422.447 158.498C421.438 159.982 420.334 161.58 419.201 163.291C418.354 164.561 417.469 165.876 416.57 167.235L416.441 167.247C416.1 167.295 415.753 167.244 415.44 167.099C415.128 166.954 414.863 166.723 414.677 166.431L414.604 166.319C415.056 164.751 415.479 163.219 415.877 161.752C416.436 159.775 416.936 157.892 417.399 156.157C417.862 154.422 418.279 152.827 418.657 151.414C419.035 150 419.319 148.761 419.589 147.739C419.859 146.717 420.019 145.918 420.151 145.371L420.344 144.53L420.025 145.332C419.827 145.855 419.517 146.621 419.155 147.605C418.792 148.588 418.33 149.776 417.835 151.149C417.339 152.522 416.765 154.064 416.176 155.759C415.588 157.455 414.925 159.268 414.272 161.237C413.937 162.196 413.604 163.177 413.273 164.179C413.139 163.968 412.962 163.787 412.755 163.649C412.547 163.51 412.313 163.416 412.068 163.373C411.822 163.331 411.571 163.34 411.329 163.4C411.087 163.461 410.861 163.571 410.664 163.725C410.677 162.663 410.688 161.622 410.702 160.611C410.734 158.554 410.734 156.607 410.731 154.808C410.728 153.009 410.722 151.363 410.707 149.905C410.693 148.447 410.665 147.168 410.646 146.122C410.627 145.075 410.594 144.247 410.58 143.684C410.567 143.12 410.55 142.838 410.55 142.838C410.55 142.838 410.514 143.138 410.451 143.695C410.387 144.253 410.289 145.072 410.189 146.116C410.09 147.161 409.952 148.429 409.831 149.883C409.71 151.337 409.551 152.98 409.432 154.773C409.312 156.567 409.134 158.505 409.004 160.558C408.902 162.082 408.788 163.662 408.687 165.296L408.585 165.374C408.314 165.585 407.989 165.714 407.647 165.745C407.306 165.776 406.962 165.708 406.658 165.549L406.543 165.491C406.154 163.902 405.756 162.368 405.381 160.887C404.883 158.892 404.378 157.011 403.916 155.275C403.454 153.54 403.019 151.963 402.64 150.537C402.261 149.112 401.894 147.907 401.604 146.898C401.314 145.889 401.073 145.1 400.914 144.563C400.756 144.026 400.662 143.737 400.662 143.737C400.662 143.737 400.689 144.036 400.784 144.575C400.88 145.114 400.985 145.948 401.16 146.985C401.334 148.021 401.525 149.277 401.783 150.717C402.04 152.158 402.31 153.779 402.644 155.544C402.978 157.308 403.321 159.229 403.725 161.246C403.916 162.238 404.115 163.26 404.319 164.302C404.098 164.187 403.856 164.119 403.607 164.103C403.358 164.087 403.109 164.124 402.875 164.21C402.642 164.296 402.428 164.431 402.249 164.605C402.07 164.778 401.929 164.988 401.835 165.22C401.329 164.294 400.824 163.39 400.322 162.506C399.314 160.71 398.357 159.019 397.464 157.462C396.571 155.906 395.74 154.483 394.997 153.227C394.253 151.971 393.601 150.876 393.063 149.979C392.525 149.082 392.072 148.372 391.793 147.901L391.338 147.17L391.676 147.962C391.904 148.476 392.214 149.237 392.66 150.19C393.105 151.142 393.604 152.31 394.24 153.635C394.876 154.961 395.536 156.458 396.333 158.074C397.131 159.69 397.933 161.459 398.844 163.302C399.514 164.671 400.205 166.102 400.921 167.564L400.873 167.688C400.743 168.007 400.524 168.283 400.243 168.481C399.962 168.68 399.63 168.793 399.286 168.808L399.152 168.82C398.028 167.65 396.915 166.512 395.857 165.416C394.43 163.937 393.063 162.56 391.795 161.288C390.526 160.016 389.365 158.857 388.326 157.835C387.287 156.814 386.371 155.93 385.616 155.201C384.862 154.472 384.262 153.911 383.855 153.524L383.227 152.936L383.762 153.613C384.114 154.052 384.617 154.702 385.281 155.512C385.946 156.321 386.742 157.318 387.659 158.435C388.575 159.552 389.641 160.826 390.808 162.188C391.975 163.55 393.222 165.04 394.587 166.588L396.622 168.949C396.373 168.96 396.129 169.023 395.906 169.134C395.683 169.245 395.486 169.402 395.326 169.594C395.167 169.786 395.049 170.01 394.981 170.25C394.912 170.491 394.895 170.743 394.929 170.991C394.034 170.444 393.142 169.919 392.25 169.402L389.679 167.875L387.262 166.469C385.719 165.566 384.29 164.754 383.021 164.038C381.752 163.322 380.645 162.705 379.73 162.216C378.816 161.726 378.087 161.322 377.598 161.052L376.839 160.65L377.523 161.165C377.976 161.497 378.633 161.993 379.483 162.603C380.332 163.213 381.359 163.969 382.55 164.802C383.741 165.636 385.078 166.596 386.556 167.612L388.858 169.201L391.329 170.881C392.593 171.734 393.903 172.624 395.261 173.528L395.272 173.654C395.321 173.996 395.271 174.346 395.127 174.66C394.984 174.974 394.753 175.24 394.462 175.425L394.359 175.494C392.793 175.042 391.268 174.612 389.808 174.211L386.931 173.403L384.238 172.672C382.505 172.198 380.922 171.786 379.513 171.426C378.104 171.067 376.876 170.754 375.859 170.486C374.842 170.218 374.042 170.049 373.498 169.92L372.661 169.725L373.459 170.047C373.984 170.249 374.742 170.558 375.722 170.927C376.701 171.296 377.883 171.757 379.25 172.252C380.617 172.747 382.156 173.328 383.841 173.926L386.46 174.867L389.281 175.845L392.21 176.852C392 176.986 391.82 177.162 391.682 177.37C391.543 177.578 391.45 177.813 391.408 178.059C391.365 178.306 391.375 178.559 391.436 178.801C391.496 179.044 391.607 179.271 391.76 179.468L388.665 179.428L385.681 179.398L382.854 179.367C381.067 179.36 379.425 179.373 377.97 179.387C376.514 179.4 375.25 179.426 374.204 179.445C373.159 179.464 372.338 179.496 371.782 179.509L370.94 179.538L371.794 179.643C372.353 179.703 373.168 179.802 374.208 179.903C375.247 180.004 376.51 180.143 377.957 180.27C379.404 180.398 381.04 180.554 382.821 180.676L385.603 180.899L388.578 181.112C390.095 181.215 391.676 181.33 393.299 181.433L393.375 181.532C393.586 181.803 393.715 182.13 393.746 182.472C393.777 182.815 393.709 183.159 393.551 183.464L393.494 183.579C391.917 183.973 390.382 184.367 388.908 184.743L386.02 185.49L383.324 186.21C381.597 186.669 380.028 187.109 378.614 187.488C377.2 187.867 375.996 188.231 374.992 188.522C373.988 188.812 373.204 189.058 372.665 189.217L371.844 189.47L372.677 189.347C373.226 189.259 374.044 189.147 375.071 188.973C376.098 188.799 377.356 188.608 378.786 188.355C380.215 188.101 381.837 187.827 383.593 187.493L386.338 186.988L389.268 186.416C390.255 186.22 391.267 186.026 392.304 185.818C392.189 186.04 392.121 186.283 392.105 186.533C392.089 186.783 392.126 187.034 392.212 187.269C392.298 187.504 392.432 187.719 392.606 187.899C392.779 188.078 392.988 188.22 393.22 188.314L390.52 189.833L387.922 191.304L385.516 192.702C383.966 193.59 382.552 194.427 381.302 195.173C380.053 195.919 378.964 196.574 378.071 197.118C377.179 197.662 376.473 198.112 376.004 198.392L375.277 198.849L376.066 198.51C376.577 198.281 377.334 197.97 378.286 197.523C379.237 197.076 380.395 196.576 381.71 195.938C383.024 195.301 384.517 194.635 386.13 193.839L388.647 192.638L391.332 191.324C392.694 190.653 394.117 189.959 395.576 189.241L395.69 189.286C396.009 189.416 396.283 189.636 396.481 189.919C396.679 190.202 396.792 190.536 396.806 190.881L396.818 191.008C395.654 192.145 394.518 193.254 393.428 194.32L391.301 196.419L389.323 198.398C388.053 199.664 386.906 200.841 385.891 201.884C384.875 202.927 383.996 203.847 383.271 204.601C382.545 205.354 381.993 205.964 381.603 206.369L381.023 207.003L381.697 206.467C382.129 206.117 382.78 205.609 383.585 204.941C384.39 204.274 385.377 203.476 386.49 202.534C387.604 201.593 388.869 200.548 390.223 199.377L392.346 197.559L394.6 195.593L396.948 193.55C396.958 193.8 397.021 194.046 397.132 194.27C397.242 194.495 397.398 194.694 397.59 194.854C397.781 195.014 398.004 195.133 398.244 195.201C398.484 195.27 398.735 195.288 398.982 195.253L397.406 197.943L395.889 200.525L394.493 202.952C393.591 204.502 392.788 205.937 392.076 207.211C391.364 208.485 390.748 209.598 390.266 210.516C389.783 211.433 389.377 212.166 389.113 212.657L388.71 213.419C388.71 213.419 388.891 213.182 389.225 212.727C389.56 212.273 390.049 211.617 390.655 210.76C391.261 209.903 392.009 208.88 392.841 207.684C393.674 206.488 394.624 205.142 395.634 203.658L397.214 201.35L398.884 198.865C399.732 197.599 400.613 196.284 401.515 194.921L401.64 194.91C401.981 194.861 402.329 194.912 402.641 195.057C402.954 195.201 403.219 195.433 403.404 195.725L403.468 195.829C403.02 197.402 402.597 198.93 402.195 200.401C401.922 201.393 401.655 202.356 401.394 203.291L400.673 205.996C400.202 207.736 399.794 209.326 399.416 210.744C399.038 212.161 398.753 213.392 398.504 214.412C398.255 215.432 398.071 216.238 397.939 216.784L397.749 217.625L398.065 216.824C398.266 216.296 398.572 215.534 398.939 214.551C399.305 213.567 399.763 212.38 400.259 211.006C400.755 209.633 401.328 208.087 401.917 206.392L402.851 203.761L403.822 200.927C404.157 199.967 404.49 198.987 404.821 197.985C404.955 198.196 405.131 198.378 405.339 198.517C405.546 198.656 405.78 198.75 406.026 198.792C406.272 198.835 406.524 198.826 406.765 198.765C407.007 198.704 407.234 198.593 407.43 198.439C407.417 199.501 407.406 200.537 407.396 201.548C407.384 202.576 407.378 203.578 407.365 204.547C407.352 205.515 407.365 206.452 407.367 207.351C407.357 209.147 407.376 210.796 407.391 212.258C407.406 213.721 407.433 214.991 407.457 216.041C407.48 217.092 407.505 217.917 407.522 218.475C407.539 219.034 407.552 219.321 407.552 219.321C407.552 219.321 407.589 219.025 407.652 218.463C407.715 217.902 407.809 217.083 407.912 216.038C408.016 214.993 408.145 213.726 408.271 212.272C408.396 210.818 408.55 209.174 408.671 207.385C408.741 206.488 408.814 205.556 408.889 204.59C408.958 203.625 409.027 202.626 409.099 201.601C409.201 200.077 409.309 198.489 409.41 196.859L409.509 196.782C409.779 196.57 410.105 196.442 410.446 196.41C410.788 196.379 411.131 196.447 411.435 196.607L411.546 196.664C411.94 198.249 412.337 199.792 412.713 201.272C412.968 202.267 413.217 203.238 413.454 204.175C413.692 205.112 413.947 206.014 414.178 206.884C414.632 208.621 415.075 210.197 415.453 211.618C415.832 213.039 416.199 214.249 416.49 215.258C416.78 216.266 417.021 217.055 417.18 217.596L417.436 218.422C417.436 218.422 417.409 218.123 417.314 217.584C417.218 217.046 417.109 216.211 416.939 215.179C416.769 214.146 416.569 212.883 416.316 211.446C416.063 210.01 415.788 208.38 415.454 206.615C415.289 205.731 415.12 204.811 414.945 203.857C414.762 202.906 414.571 201.922 414.378 200.913C414.185 199.904 413.984 198.904 413.779 197.861C414 197.977 414.243 198.046 414.492 198.062C414.741 198.078 414.99 198.042 415.224 197.955C415.458 197.869 415.671 197.734 415.85 197.56C416.029 197.386 416.17 197.176 416.263 196.944C416.77 197.869 417.274 198.774 417.777 199.657L419.243 202.269L420.637 204.688C421.527 206.249 422.361 207.671 423.105 208.927C423.848 210.184 424.501 211.278 425.039 212.176C425.577 213.073 426.03 213.783 426.309 214.254L426.768 214.984C426.768 214.984 426.65 214.706 426.426 214.192C426.202 213.678 425.888 212.917 425.446 211.96C425.004 211.003 424.501 209.84 423.866 208.519C423.23 207.198 422.57 205.692 421.793 204.074C421.407 203.26 421.009 202.418 420.592 201.544C420.175 200.67 419.734 199.772 419.282 198.846C418.617 197.472 417.921 196.046 417.205 194.579L417.254 194.465C417.383 194.144 417.601 193.868 417.883 193.669C418.164 193.47 418.497 193.358 418.841 193.344L418.966 193.333C420.095 194.503 421.204 195.645 422.266 196.737L424.357 198.88C425.036 199.57 425.696 200.231 426.328 200.865C427.584 202.142 428.758 203.3 429.801 204.321C430.844 205.342 431.752 206.227 432.507 206.952C433.261 207.676 433.861 208.241 434.268 208.629L434.896 209.216L434.365 208.539C434.013 208.104 433.506 207.45 432.842 206.641C432.177 205.832 431.385 204.839 430.464 203.718C429.543 202.596 428.481 201.327 427.319 199.964L425.5 197.89L423.541 195.624C422.877 194.865 422.201 194.078 421.502 193.263C421.751 193.252 421.995 193.189 422.218 193.078C422.441 192.967 422.638 192.81 422.798 192.618C422.957 192.426 423.075 192.202 423.143 191.962C423.212 191.721 423.229 191.469 423.195 191.221L425.874 192.81C427.634 193.872 429.31 194.844 430.862 195.751C432.414 196.658 433.835 197.47 435.104 198.187C436.373 198.903 437.48 199.519 438.397 200.03C439.313 200.54 440.036 200.92 440.529 201.189L441.288 201.595L440.599 201.077C440.147 200.749 439.49 200.253 438.64 199.643C437.791 199.033 436.763 198.278 435.572 197.44C434.381 196.602 433.044 195.646 431.567 194.635C430.09 193.623 428.498 192.508 426.794 191.365C425.53 190.512 424.22 189.622 422.867 188.722L422.854 188.587C422.807 188.245 422.858 187.897 423.002 187.583C423.145 187.269 423.375 187.003 423.665 186.816L423.776 186.747C425.338 187.199 426.863 187.624 428.323 188.03C430.292 188.598 432.166 189.102 433.893 189.569C435.621 190.035 437.208 190.451 438.616 190.836C440.023 191.222 441.257 191.508 442.274 191.776C443.291 192.044 444.087 192.214 444.631 192.347L445.468 192.538L444.67 192.22C444.149 192.017 443.387 191.709 442.407 191.34C441.428 190.971 440.246 190.51 438.878 190.01C437.511 189.511 435.977 188.938 434.288 188.34C432.6 187.743 430.796 187.084 428.836 186.427L425.902 185.421C426.112 185.286 426.292 185.109 426.43 184.9C426.568 184.692 426.661 184.457 426.703 184.21C426.745 183.964 426.736 183.711 426.676 183.468C426.615 183.225 426.505 182.998 426.352 182.8L429.451 182.836C431.498 182.87 433.436 182.872 435.227 182.875C437.017 182.877 438.655 182.864 440.106 182.855C441.558 182.846 442.831 182.815 443.872 182.797C444.913 182.778 445.738 182.746 446.299 182.733L447.14 182.703L446.287 182.602C445.732 182.543 444.912 182.443 443.877 182.342C442.842 182.241 441.575 182.102 440.123 181.975C438.672 181.848 437.045 181.691 435.26 181.569C433.475 181.447 431.546 181.266 429.503 181.134C427.986 181.03 426.413 180.915 424.787 180.816L424.705 180.709C424.496 180.437 424.369 180.111 424.338 179.769C424.307 179.427 424.373 179.083 424.529 178.778L424.59 178.662C426.172 178.268 427.698 177.87 429.171 177.494C431.157 176.995 433.029 176.494 434.756 176.027C436.482 175.56 438.052 175.133 439.466 174.75C440.88 174.366 442.088 174.006 443.092 173.715C444.096 173.424 444.88 173.179 445.415 173.02L446.236 172.767L445.403 172.89C444.849 172.978 444.036 173.095 443.005 173.265C441.973 173.435 440.724 173.634 439.29 173.887C437.857 174.141 436.243 174.415 434.487 174.749C432.731 175.082 430.82 175.422 428.813 175.825L425.772 176.424C425.887 176.202 425.954 175.959 425.969 175.71C425.985 175.46 425.948 175.21 425.862 174.975C425.776 174.741 425.642 174.527 425.469 174.347C425.296 174.167 425.087 174.026 424.857 173.932L427.561 172.413C429.348 171.402 431.03 170.443 432.578 169.542C434.126 168.642 435.541 167.813 436.791 167.071C438.041 166.329 439.13 165.67 440.022 165.127C440.914 164.583 441.62 164.132 442.089 163.856L442.816 163.396L442.028 163.739C441.516 163.964 440.76 164.279 439.812 164.721C438.864 165.164 437.662 165.596 436.345 166.212L436.351 166.224ZM407.016 159.406L407.062 159.402C407.245 159.387 407.423 159.334 407.584 159.247C407.745 159.159 407.887 159.038 407.999 158.892C408.108 158.751 408.185 158.589 408.227 158.415C408.269 158.242 408.274 158.061 408.241 157.886L407.629 154.458C407.583 154.201 407.442 153.97 407.234 153.812C407.027 153.653 406.768 153.579 406.508 153.602C406.249 153.626 406.008 153.746 405.833 153.939C405.657 154.132 405.56 154.385 405.561 154.646L405.578 158.128C405.577 158.307 405.615 158.483 405.687 158.646C405.759 158.809 405.865 158.955 405.997 159.075C406.138 159.198 406.302 159.29 406.481 159.344C406.659 159.399 406.846 159.415 407.031 159.392L407.016 159.406ZM411.783 159.036C411.883 159.192 412.015 159.326 412.17 159.427C412.324 159.528 412.499 159.596 412.681 159.625L412.732 159.62C412.848 159.642 412.966 159.647 413.083 159.635C413.386 159.609 413.671 159.477 413.887 159.262C414.103 159.047 414.236 158.762 414.264 158.458L414.553 154.995C414.574 154.846 414.561 154.694 414.514 154.551C414.468 154.408 414.389 154.278 414.284 154.171C414.165 154.056 414.022 153.969 413.866 153.915C413.711 153.861 413.545 153.842 413.381 153.858C413.171 153.873 412.971 153.956 412.812 154.097C412.654 154.237 412.546 154.426 412.506 154.634L411.63 157.998C411.584 158.171 411.576 158.351 411.605 158.528C411.634 158.704 411.7 158.873 411.799 159.022L411.783 159.036ZM398.059 206.319C398.221 206.302 398.376 206.244 398.51 206.151C398.644 206.058 398.752 205.932 398.825 205.786L400.544 202.766C400.632 202.612 400.687 202.44 400.705 202.263C400.723 202.086 400.704 201.907 400.649 201.738C400.593 201.565 400.502 201.406 400.381 201.271C400.26 201.136 400.113 201.028 399.948 200.953L399.9 200.932C399.686 200.829 399.449 200.786 399.213 200.808C398.968 200.826 398.733 200.916 398.538 201.066C398.343 201.217 398.197 201.421 398.116 201.654L396.944 204.926C396.877 205.084 396.852 205.257 396.873 205.427C396.894 205.597 396.959 205.759 397.062 205.896C397.185 206.041 397.341 206.155 397.518 206.226C397.694 206.297 397.885 206.324 398.074 206.304L398.059 206.319ZM406.222 203.216C406.123 203.06 405.991 202.926 405.836 202.825C405.681 202.723 405.507 202.656 405.324 202.628L405.274 202.632C405.156 202.613 405.037 202.608 404.918 202.618C404.618 202.647 404.339 202.781 404.127 202.995C403.915 203.21 403.785 203.492 403.758 203.793L403.465 207.256C403.445 207.405 403.459 207.557 403.506 207.699C403.552 207.842 403.63 207.972 403.734 208.081C403.854 208.193 403.997 208.279 404.152 208.332C404.308 208.386 404.473 208.405 404.636 208.389C404.847 208.375 405.047 208.291 405.205 208.151C405.363 208.01 405.471 207.821 405.512 207.613L406.392 204.253C406.447 204.079 406.464 203.894 406.44 203.712C406.417 203.53 406.355 203.356 406.259 203.2L406.222 203.216ZM418.239 202.462C418.157 202.168 417.974 201.912 417.723 201.739C417.472 201.567 417.168 201.488 416.865 201.518C416.739 201.531 416.616 201.56 416.497 201.603C416.323 201.664 416.163 201.762 416.029 201.889C415.895 202.017 415.79 202.172 415.72 202.344C415.651 202.509 415.618 202.686 415.623 202.865C415.627 203.044 415.67 203.22 415.747 203.381L417.215 206.527C417.293 206.725 417.433 206.891 417.614 207C417.795 207.109 418.007 207.156 418.216 207.132C418.379 207.118 418.538 207.069 418.68 206.989C418.823 206.909 418.947 206.799 419.044 206.666C419.127 206.542 419.181 206.399 419.202 206.25C419.222 206.101 419.207 205.95 419.16 205.807L418.239 202.462ZM410.994 202.846L410.944 202.85C410.76 202.864 410.582 202.917 410.421 203.005C410.259 203.093 410.118 203.214 410.006 203.36C409.898 203.501 409.82 203.664 409.778 203.837C409.736 204.011 409.732 204.191 409.764 204.367L410.375 207.79C410.422 208.048 410.563 208.278 410.771 208.437C410.978 208.595 411.237 208.67 411.496 208.646C411.756 208.623 411.997 208.502 412.172 208.309C412.348 208.116 412.445 207.864 412.444 207.602L412.428 204.124C412.428 203.946 412.391 203.769 412.318 203.606C412.246 203.443 412.14 203.297 412.008 203.178C411.877 203.056 411.723 202.962 411.555 202.902C411.387 202.843 411.208 202.818 411.03 202.83L410.994 202.846ZM399.749 159.792C399.83 160.083 400.009 160.337 400.256 160.51C400.503 160.682 400.803 160.763 401.102 160.738C401.221 160.728 401.338 160.702 401.45 160.659L401.496 160.655C401.671 160.593 401.83 160.494 401.964 160.366C402.097 160.237 402.203 160.082 402.273 159.91C402.342 159.746 402.375 159.569 402.371 159.391C402.367 159.213 402.326 159.038 402.251 158.877L400.777 155.727C400.7 155.529 400.56 155.363 400.379 155.254C400.198 155.144 399.986 155.098 399.776 155.122C399.612 155.135 399.453 155.184 399.309 155.266C399.166 155.347 399.042 155.458 398.945 155.592C398.862 155.717 398.808 155.859 398.788 156.008C398.768 156.157 398.782 156.308 398.829 156.451L399.749 159.792ZM430.562 164.744C430.395 164.762 430.234 164.815 430.09 164.902L427.104 166.654C426.95 166.743 426.816 166.863 426.711 167.007C426.606 167.151 426.533 167.316 426.496 167.49C426.458 167.671 426.457 167.857 426.494 168.037C426.531 168.218 426.604 168.389 426.71 168.54L426.743 168.584C426.876 168.775 427.056 168.927 427.266 169.026C427.476 169.124 427.708 169.166 427.939 169.145C428.198 169.122 428.444 169.018 428.642 168.848L431.289 166.609C431.467 166.478 431.596 166.29 431.654 166.075C431.711 165.861 431.693 165.633 431.604 165.43C431.528 165.223 431.391 165.045 431.211 164.919C431.031 164.794 430.817 164.727 430.598 164.728L430.562 164.744ZM425.828 159.638C425.582 159.666 425.355 159.782 425.186 159.963L422.751 162.438C422.626 162.564 422.528 162.714 422.465 162.88C422.401 163.046 422.373 163.223 422.383 163.401C422.391 163.587 422.439 163.769 422.522 163.936C422.606 164.102 422.723 164.249 422.867 164.367L422.899 164.393C423.033 164.507 423.187 164.593 423.353 164.646C423.52 164.7 423.695 164.719 423.869 164.704C424.056 164.688 424.236 164.631 424.398 164.536C424.559 164.441 424.698 164.312 424.803 164.156L426.786 161.299C426.907 161.147 426.979 160.961 426.993 160.766C427.006 160.571 426.959 160.377 426.86 160.21C426.762 160.031 426.617 159.882 426.442 159.779C426.267 159.675 426.068 159.621 425.864 159.622L425.828 159.638ZM395.802 163.554C396.044 163.531 396.275 163.442 396.471 163.298C396.621 163.196 396.748 163.063 396.844 162.908C396.94 162.753 397.002 162.579 397.027 162.399C397.05 162.222 397.037 162.043 396.987 161.872C396.938 161.701 396.853 161.542 396.738 161.406L394.503 158.746C394.405 158.614 394.276 158.509 394.127 158.441C393.978 158.373 393.815 158.344 393.652 158.356C393.478 158.385 393.313 158.452 393.169 158.553C393.024 158.654 392.905 158.787 392.819 158.941C392.742 159.095 392.707 159.267 392.718 159.439C392.728 159.611 392.784 159.777 392.878 159.92L394.621 162.923C394.744 163.132 394.924 163.301 395.14 163.41C395.356 163.518 395.598 163.563 395.838 163.538L395.802 163.554ZM419.991 155.917C419.828 155.934 419.672 155.992 419.537 156.085C419.402 156.179 419.293 156.306 419.221 156.454L417.507 159.474C417.418 159.628 417.362 159.799 417.343 159.976C417.324 160.154 417.343 160.333 417.398 160.502C417.455 160.681 417.549 160.846 417.675 160.985C417.8 161.125 417.954 161.235 418.126 161.31L418.151 161.308C418.364 161.407 418.599 161.448 418.833 161.428C419.078 161.41 419.313 161.32 419.508 161.17C419.703 161.019 419.849 160.815 419.93 160.582L421.106 157.314C421.174 157.155 421.198 156.982 421.177 156.811C421.157 156.64 421.091 156.478 420.988 156.34C420.868 156.194 420.715 156.08 420.541 156.006C420.368 155.933 420.179 155.902 419.991 155.917ZM392.202 202.604C392.447 202.575 392.673 202.458 392.839 202.275L395.279 199.804C395.404 199.678 395.502 199.526 395.565 199.36C395.629 199.193 395.657 199.015 395.647 198.837C395.639 198.652 395.592 198.471 395.509 198.306C395.427 198.141 395.31 197.995 395.167 197.879L395.13 197.844C394.996 197.731 394.84 197.646 394.673 197.594C394.506 197.541 394.33 197.522 394.156 197.538C393.97 197.554 393.79 197.61 393.628 197.704C393.466 197.798 393.328 197.927 393.222 198.082L391.244 200.939C391.122 201.092 391.05 201.278 391.037 201.474C391.024 201.669 391.07 201.864 391.17 202.032C391.273 202.213 391.423 202.362 391.604 202.463C391.785 202.564 391.991 202.613 392.198 202.605L392.202 202.604ZM404.634 132.772C393.504 133.785 383.071 138.645 375.113 146.523C367.154 154.401 362.164 164.81 360.991 175.976C359.817 187.143 362.535 198.376 368.679 207.762C374.824 217.148 384.015 224.105 394.688 227.449C405.36 230.793 416.854 230.316 427.209 226.1C437.564 221.884 446.141 214.19 451.478 204.328C456.815 194.466 458.582 183.046 456.478 172.016C454.374 160.985 448.528 151.025 439.938 143.834C435.071 139.737 429.444 136.65 423.383 134.751C417.323 132.853 410.949 132.18 404.63 132.773L404.634 132.772ZM444.402 210.711C437.597 218.926 428.165 224.514 417.713 226.523C407.262 228.531 396.437 226.836 387.084 221.725C377.731 216.614 370.429 208.405 366.421 198.495C362.413 188.586 361.947 177.59 365.104 167.38C368.261 157.171 374.844 148.38 383.732 142.506C392.62 136.632 403.263 134.038 413.847 135.166C424.432 136.294 434.302 141.075 441.778 148.693C449.253 156.311 453.87 166.295 454.842 176.944C455.411 182.988 454.78 189.085 452.988 194.881C451.196 200.677 448.278 206.057 444.402 210.711ZM459.112 154.254C452.468 141.732 441.433 132.133 428.148 127.32C414.864 122.506 400.278 122.823 387.221 128.208C374.164 133.593 363.569 143.661 357.492 156.459C351.415 169.258 350.289 183.872 354.334 197.466C358.378 211.06 367.305 222.663 379.38 230.024C391.454 237.384 405.817 239.977 419.678 237.298C433.54 234.619 445.912 226.86 454.393 215.527C462.873 204.194 466.858 190.095 465.572 175.968C464.892 168.369 462.695 160.984 459.112 154.254ZM413.673 232.147C403.624 233.061 393.527 230.961 384.661 226.111C375.795 221.261 368.557 213.88 363.862 204.901C359.168 195.921 357.228 185.747 358.287 175.665C359.347 165.583 363.359 156.045 369.815 148.259C376.272 140.472 384.883 134.786 394.56 131.92C404.238 129.053 414.546 129.135 424.182 132.155C433.818 135.175 442.348 140.998 448.695 148.886C455.042 156.775 458.919 166.375 459.837 176.473C461.053 190.01 456.876 203.474 448.221 213.911C439.567 224.348 427.142 230.907 413.673 232.147ZM384.238 191.338C384.316 191.337 384.393 191.33 384.469 191.317L387.806 190.402C387.975 190.355 388.132 190.273 388.267 190.161C388.402 190.049 388.513 189.911 388.592 189.754C388.675 189.588 388.724 189.408 388.735 189.223C388.746 189.038 388.718 188.852 388.654 188.679L388.65 188.632C388.59 188.462 388.495 188.307 388.372 188.176C388.249 188.045 388.1 187.94 387.935 187.87C387.77 187.799 387.592 187.763 387.412 187.765C387.233 187.767 387.056 187.806 386.892 187.88L383.763 189.357C383.534 189.449 383.349 189.625 383.244 189.848C383.139 190.072 383.122 190.327 383.197 190.563C383.252 190.794 383.386 190.999 383.577 191.141C383.768 191.283 384.002 191.353 384.238 191.338ZM386.154 184.544L386.267 184.534C386.435 184.519 386.598 184.471 386.746 184.392C386.895 184.312 387.027 184.204 387.133 184.073C387.245 183.938 387.329 183.782 387.38 183.614C387.431 183.447 387.449 183.27 387.433 183.095L387.428 183.049C387.413 182.874 387.364 182.704 387.283 182.548C387.202 182.392 387.091 182.254 386.957 182.142C386.829 182.033 386.68 181.951 386.519 181.901C386.359 181.85 386.19 181.833 386.023 181.849L385.91 181.859L382.503 182.471C382.246 182.517 382.017 182.659 381.86 182.867C381.702 183.075 381.628 183.335 381.652 183.596C381.675 183.857 381.795 184.099 381.988 184.275C382.18 184.452 382.431 184.55 382.692 184.549L386.154 184.544ZM387.48 197.496C387.646 197.479 387.806 197.424 387.947 197.335L390.938 195.586C391.092 195.497 391.225 195.376 391.329 195.231C391.433 195.087 391.506 194.921 391.542 194.747C391.582 194.565 391.583 194.376 391.545 194.194C391.508 194.012 391.432 193.839 391.323 193.689L391.319 193.651C391.185 193.461 391.005 193.31 390.795 193.212C390.586 193.113 390.354 193.071 390.124 193.089C389.863 193.112 389.616 193.216 389.416 193.387L386.77 195.631C386.59 195.759 386.461 195.947 386.403 196.161C386.346 196.375 386.364 196.603 386.455 196.805C386.532 197.01 386.67 197.186 386.849 197.31C387.029 197.434 387.242 197.499 387.459 197.498L387.48 197.496ZM384.494 170.854L387.48 172.568C387.714 172.7 387.983 172.759 388.251 172.736C388.46 172.716 388.661 172.646 388.838 172.534C389.015 172.421 389.163 172.267 389.27 172.086C389.377 171.905 389.44 171.7 389.454 171.49C389.467 171.279 389.431 171.069 389.348 170.875C389.278 170.696 389.172 170.535 389.035 170.401C388.898 170.267 388.735 170.164 388.555 170.098L385.368 168.942C385.212 168.883 385.046 168.859 384.88 168.871C384.66 168.903 384.456 169.004 384.296 169.158C384.135 169.313 384.028 169.514 383.987 169.733C383.927 169.949 383.942 170.178 384.032 170.383C384.121 170.588 384.279 170.755 384.478 170.856L384.494 170.854ZM386.032 178.471C386.206 178.517 386.388 178.525 386.566 178.495C386.744 178.466 386.913 178.399 387.064 178.299C387.214 178.2 387.342 178.069 387.438 177.917C387.535 177.764 387.599 177.592 387.625 177.413L387.621 177.367C387.652 177.185 387.645 176.997 387.601 176.817C387.557 176.637 387.477 176.469 387.365 176.321C387.259 176.181 387.125 176.064 386.972 175.979C386.819 175.894 386.65 175.841 386.475 175.825L383.028 175.532C382.951 175.531 382.874 175.538 382.798 175.553C382.557 175.578 382.334 175.69 382.169 175.868C382.004 176.046 381.91 176.278 381.902 176.521C381.871 176.767 381.934 177.016 382.078 177.217C382.221 177.419 382.435 177.559 382.677 177.609L386.032 178.471ZM391.44 167.642C391.79 167.609 392.113 167.438 392.338 167.166L392.372 167.125C392.492 166.983 392.58 166.818 392.631 166.64C392.683 166.462 392.696 166.275 392.671 166.092C392.648 165.916 392.589 165.746 392.496 165.594C392.404 165.443 392.281 165.312 392.135 165.211L389.289 163.217C389.092 163.068 388.849 162.995 388.603 163.012C388.397 163.04 388.203 163.125 388.042 163.257C387.881 163.389 387.759 163.564 387.692 163.761C387.624 163.944 387.613 164.143 387.661 164.333C387.709 164.522 387.814 164.691 387.961 164.819L390.422 167.272C390.553 167.405 390.711 167.507 390.886 167.571C391.06 167.635 391.247 167.66 391.431 167.643L391.44 167.642Z" fill="#9BD3B9"/>
</svg>
