<svg width="445" height="260" viewBox="0 0 445 260" fill="none" xmlns="http://www.w3.org/2000/svg">
<path d="M53.6079 53.1612C52.8281 53.1521 52.0513 53.266 51.3059 53.4987C50.0343 53.8464 48.8207 54.3816 47.7049 55.0868C47.2091 55.4681 46.8819 56.0289 46.794 56.6482C46.7061 57.2675 46.8644 57.8956 47.2349 58.3969C47.6054 58.8983 48.1583 59.2327 48.7743 59.3279C49.3903 59.4232 50.0199 59.2718 50.5274 58.9062C51.5234 58.0385 52.3862 57.0282 53.0876 55.9081C53.5222 55.2576 53.8564 54.5453 54.079 53.7955C54.0988 53.7218 54.1017 53.6447 54.0876 53.5698C54.0734 53.495 54.0425 53.4244 53.9971 53.3634C53.9518 53.3023 53.8933 53.2524 53.8258 53.2174C53.7584 53.1824 53.6839 53.1632 53.6079 53.1612ZM107.064 99.5219L88.4059 29.2138C88.1866 28.3888 87.6491 27.6862 86.9117 27.2604C86.1742 26.8347 85.297 26.7205 84.4729 26.9431L14.2584 45.9407C13.8502 46.0508 13.4673 46.2404 13.1317 46.4987C12.796 46.757 12.5142 47.0789 12.3023 47.4459C12.0904 47.813 11.9525 48.218 11.8967 48.6378C11.8408 49.0576 11.868 49.484 11.9767 49.8926C14.5291 59.5376 18.9554 68.5756 25.0024 76.4898C31.0494 84.4039 38.5985 91.039 47.2179 96.0154C55.8374 100.992 65.3581 104.212 75.2355 105.492C85.1128 106.772 95.1531 106.086 104.782 103.474C105.606 103.251 106.309 102.709 106.737 101.968C107.165 101.227 107.282 100.347 107.064 99.5219ZM84.7292 31.044L100.228 89.4487C84.7668 93.4147 68.3967 91.1784 54.6056 83.2161C40.8146 75.2538 30.6928 62.1951 26.3968 46.8221L84.7292 31.044ZM49.2458 92.5031C32.9688 83.1612 21.0506 67.7462 16.0777 49.6035L24.856 47.2287C29.2585 63.0152 39.6478 76.4265 53.8077 84.6017C67.9675 92.7769 84.7768 95.0687 100.649 90.9881L102.982 99.7778C84.7835 104.542 65.4746 101.928 49.2458 92.5031ZM77.7008 74.5948C77.6696 75.1987 77.869 75.7909 78.2585 76.2509C78.6479 76.7109 79.1982 77.0042 79.7973 77.0712C80.3965 77.1382 80.9995 76.9739 81.4839 76.6115C81.9682 76.2492 82.2975 75.7162 82.4047 75.1208C82.4603 73.8025 82.318 72.4841 81.9826 71.2099C81.8094 70.4486 81.5197 69.7192 81.1238 69.0475C81.0841 68.9827 81.0302 68.9278 80.9661 68.8869C80.9021 68.846 80.8296 68.8202 80.7541 68.8115C80.6786 68.8028 80.602 68.8113 80.5301 68.8364C80.4582 68.8616 80.3929 68.9027 80.339 68.9567C79.7981 69.522 79.348 70.1681 79.0051 70.8715C78.3861 72.0405 77.9464 73.2957 77.7008 74.5948ZM64.7747 70.3523C65.3444 69.1628 65.7344 67.8956 65.932 66.5924C66.0749 65.8242 66.0999 65.0391 66.0062 64.2643C65.9949 64.189 65.9668 64.1172 65.924 64.0543C65.8813 63.9915 65.8249 63.9391 65.7591 63.9011C65.6934 63.8632 65.6198 63.8405 65.544 63.8349C65.4682 63.8293 65.392 63.8409 65.3211 63.8688C64.6023 64.1742 63.9339 64.5878 63.339 65.0954C62.311 65.9197 61.4097 66.8915 60.6645 67.9792C60.3483 68.5269 60.2616 69.1772 60.4234 69.7869C60.5852 70.3967 60.9823 70.9161 61.5274 71.2308C62.0724 71.5455 62.7208 71.6297 63.3298 71.4649C63.9388 71.3002 64.4585 70.9 64.7747 70.3523Z" fill="#F5C5BD"/>
<path d="M171.887 136.981C163.561 130.005 153.087 126.144 142.251 126.055C131.415 125.966 120.887 129.654 112.46 136.492C104.034 143.33 98.2301 152.895 96.0385 163.556C93.8468 174.216 95.4027 185.314 100.441 194.958C105.479 204.602 113.688 212.195 123.669 216.444C133.65 220.692 144.786 221.333 155.178 218.258C165.571 215.183 174.577 208.581 180.663 199.578C186.749 190.575 189.538 179.727 188.554 168.883C188.013 162.724 186.261 156.733 183.4 151.257C180.539 145.781 176.626 140.929 171.887 136.981ZM174.265 200.211C168.035 207.727 159.401 212.837 149.836 214.671C140.271 216.506 130.366 214.95 121.809 210.27C113.252 205.59 106.572 198.075 102.908 189.005C99.2432 179.935 98.8212 169.872 101.713 160.531C104.605 151.189 110.633 143.147 118.768 137.775C126.904 132.402 136.644 130.032 146.33 131.068C156.015 132.104 165.047 136.482 171.885 143.455C178.723 150.429 182.945 159.568 183.831 169.313C184.35 174.845 183.771 180.424 182.129 185.727C180.487 191.031 177.814 195.954 174.265 200.211ZM139.651 167.446C139.825 167.779 140.093 168.054 140.422 168.235C140.751 168.415 141.126 168.493 141.499 168.459C141.873 168.425 142.227 168.281 142.518 168.044C142.809 167.807 143.024 167.488 143.134 167.129L151.348 140.593C151.798 139.196 151.699 137.678 151.07 136.351C150.656 135.489 150.033 134.746 149.258 134.19C148.483 133.634 147.581 133.283 146.635 133.17C143.856 132.833 141.05 132.789 138.262 133.039C135.475 133.296 132.723 133.848 130.051 134.686C129.724 134.787 129.407 134.918 129.104 135.077C128.448 135.422 127.867 135.894 127.394 136.467C126.922 137.041 126.568 137.703 126.353 138.415C125.909 139.853 126.051 141.41 126.747 142.744L139.651 167.446ZM128.146 138.98C128.287 138.509 128.52 138.07 128.832 137.692C129.144 137.313 129.528 137 129.963 136.774C130.163 136.666 130.373 136.578 130.59 136.51C135.7 134.909 141.092 134.418 146.407 135.071C147.036 135.146 147.635 135.379 148.15 135.749C148.664 136.119 149.078 136.613 149.352 137.187C149.768 138.077 149.83 139.093 149.527 140.027L141.312 166.552L128.401 141.858C128.173 141.419 128.032 140.938 127.989 140.444C127.945 139.95 127.998 139.453 128.146 138.98ZM144.19 178.805C144.015 178.472 143.746 178.199 143.418 178.02C143.089 177.841 142.715 177.763 142.342 177.797C141.97 177.831 141.616 177.975 141.325 178.21C141.034 178.446 140.819 178.763 140.707 179.122L132.462 205.744C132.178 206.653 132.126 207.619 132.311 208.553C132.496 209.488 132.912 210.361 133.52 211.091C134.472 212.222 135.82 212.94 137.284 213.098C140.033 213.427 142.809 213.468 145.566 213.219C148.359 212.962 151.117 212.41 153.794 211.571C154.121 211.467 154.439 211.335 154.744 211.176C156.063 210.47 157.051 209.267 157.49 207.83C157.929 206.394 157.784 204.841 157.088 203.511L144.19 178.805ZM155.679 207.29C155.39 208.232 154.74 209.02 153.872 209.481C153.669 209.585 153.458 209.673 153.241 209.742C150.691 210.539 148.065 211.065 145.406 211.309C142.78 211.546 140.137 211.509 137.519 211.197C136.538 211.094 135.633 210.618 134.99 209.866C134.586 209.38 134.309 208.801 134.184 208.18C134.06 207.56 134.093 206.918 134.281 206.314L142.508 179.693L155.423 204.394C155.655 204.835 155.797 205.319 155.841 205.816C155.885 206.313 155.83 206.814 155.679 207.29ZM139.197 176.998C139.002 176.754 138.75 176.561 138.464 176.438C138.177 176.314 137.865 176.263 137.554 176.29C137.304 176.312 137.06 176.386 136.839 176.505L112.352 189.414C111.056 190.08 110.059 191.215 109.562 192.591C109.241 193.488 109.153 194.452 109.305 195.394C109.457 196.335 109.844 197.222 110.431 197.972C113.898 202.425 118.269 206.084 123.253 208.707C124.218 209.218 125.308 209.438 126.394 209.342C127.069 209.284 127.729 209.105 128.342 208.815L128.498 208.734L128.519 208.732L128.685 208.644C129.929 207.935 130.856 206.775 131.275 205.401L139.519 178.778C139.617 178.478 139.639 178.158 139.583 177.847C139.527 177.536 139.394 177.244 139.197 176.998ZM129.465 204.81C129.191 205.706 128.593 206.466 127.788 206.94L127.595 206.958L127.472 207.105C127.078 207.291 126.655 207.405 126.221 207.443C125.498 207.51 124.77 207.364 124.127 207.024C119.385 204.524 115.225 201.039 111.924 196.8C111.534 196.303 111.276 195.715 111.174 195.09C111.072 194.466 111.129 193.826 111.341 193.23C111.682 192.305 112.36 191.545 113.238 191.104L137.716 178.183L129.465 204.81ZM144.635 169.261C144.909 169.604 145.295 169.841 145.725 169.929C146.154 170.018 146.601 169.953 146.988 169.746L171.478 156.838C172.773 156.17 173.769 155.036 174.265 153.661C174.587 152.764 174.676 151.799 174.524 150.857C174.373 149.915 173.986 149.027 173.399 148.276C169.931 143.824 165.561 140.165 160.578 137.541C159.844 137.156 159.035 136.937 158.209 136.9C157.382 136.863 156.558 137.009 155.793 137.326C155.029 137.644 154.344 138.127 153.785 138.74C153.227 139.353 152.809 140.081 152.562 140.875L144.321 167.497C144.225 167.794 144.204 168.11 144.259 168.417C144.315 168.724 144.445 169.012 144.638 169.257L144.635 169.261ZM154.356 141.446C154.519 140.918 154.797 140.431 155.169 140.023C155.541 139.614 155.997 139.293 156.507 139.082C157.017 138.87 157.566 138.775 158.117 138.801C158.668 138.828 159.206 138.976 159.694 139.235C164.439 141.733 168.6 145.219 171.901 149.459C172.289 149.956 172.545 150.545 172.644 151.169C172.744 151.793 172.683 152.432 172.469 153.027C172.127 153.95 171.449 154.708 170.572 155.149L146.106 168.048L154.356 141.446ZM109.54 188.984C110.323 188.911 111.084 188.683 111.779 188.314L136.265 175.402C136.596 175.228 136.868 174.959 137.046 174.629C137.225 174.299 137.302 173.923 137.268 173.549C137.234 173.174 137.09 172.819 136.855 172.526C136.62 172.234 136.304 172.018 135.947 171.906L109.442 163.6C108.65 163.352 107.812 163.283 106.99 163.397C106.168 163.51 105.38 163.804 104.684 164.258C103.988 164.711 103.399 165.313 102.961 166.021C102.522 166.728 102.243 167.524 102.145 168.352C101.465 173.96 101.983 179.649 103.663 185.041C103.944 185.953 104.452 186.778 105.138 187.438C105.824 188.098 106.666 188.572 107.584 188.815C108.219 188.99 108.879 189.048 109.534 188.988L109.54 188.984ZM105.482 184.473C103.884 179.337 103.391 173.919 104.036 168.579C104.109 167.97 104.328 167.388 104.675 166.884C105.022 166.379 105.486 165.966 106.026 165.682C106.46 165.451 106.935 165.309 107.424 165.264C107.915 165.221 108.41 165.276 108.881 165.426L135.379 173.712L110.893 186.624C110.032 187.084 109.032 187.207 108.085 186.97C107.477 186.809 106.919 186.496 106.463 186.059C106.008 185.622 105.67 185.077 105.482 184.473ZM109.894 162.442L136.312 170.721C136.551 170.796 136.802 170.824 137.051 170.801C137.36 170.771 137.657 170.666 137.916 170.493C138.175 170.32 138.387 170.087 138.534 169.812C138.681 169.537 138.759 169.23 138.76 168.918C138.761 168.606 138.686 168.299 138.54 168.023L125.636 143.321C125.117 142.323 124.315 141.501 123.331 140.961C122.347 140.421 121.226 140.187 120.11 140.289C119.38 140.354 118.671 140.565 118.024 140.909C117.72 141.068 117.431 141.256 117.162 141.47C112.733 144.949 109.094 149.338 106.489 154.344C106.045 155.188 105.82 156.132 105.836 157.088C105.853 158.044 106.109 158.98 106.582 159.81C107.313 161.079 108.498 162.02 109.894 162.442ZM108.168 155.227C110.651 150.463 114.117 146.286 118.334 142.974C118.513 142.832 118.704 142.707 118.906 142.6C119.327 142.376 119.788 142.238 120.262 142.193C121.004 142.126 121.748 142.283 122.401 142.642C123.054 143.002 123.586 143.548 123.93 144.212L136.836 168.892L110.464 160.619C109.526 160.339 108.729 159.71 108.234 158.861C107.92 158.31 107.748 157.688 107.737 157.052C107.725 156.417 107.874 155.789 108.168 155.227ZM173.936 183.81L147.519 175.534C147.28 175.456 147.029 175.427 146.779 175.45C146.471 175.481 146.174 175.587 145.916 175.76C145.658 175.933 145.446 176.167 145.299 176.441C145.152 176.715 145.074 177.022 145.073 177.334C145.071 177.645 145.146 177.953 145.29 178.229L158.209 202.929C158.725 203.924 159.524 204.743 160.503 205.283C161.482 205.824 162.598 206.06 163.71 205.964C164.44 205.899 165.149 205.689 165.797 205.347C166.1 205.186 166.389 204.998 166.658 204.785C171.086 201.306 174.725 196.917 177.332 191.912C177.777 191.071 178.005 190.13 177.993 189.177C177.981 188.224 177.73 187.288 177.264 186.458C176.532 185.181 175.341 184.233 173.936 183.81ZM175.666 191.024C173.182 195.789 169.717 199.967 165.501 203.281C165.321 203.421 165.13 203.545 164.928 203.651C164.501 203.878 164.033 204.017 163.551 204.06C162.808 204.13 162.06 203.975 161.405 203.615C160.749 203.256 160.215 202.708 159.87 202.043L146.942 177.357L173.364 185.637C174.302 185.915 175.099 186.542 175.593 187.39C175.908 187.942 176.079 188.563 176.092 189.198C176.105 189.834 175.958 190.461 175.666 191.024ZM180.164 161.211C179.881 160.3 179.373 159.476 178.687 158.816C178.001 158.156 177.16 157.682 176.243 157.437C174.834 157.071 173.339 157.249 172.056 157.937L147.566 170.849C147.235 171.024 146.963 171.293 146.784 171.623C146.606 171.953 146.529 172.329 146.563 172.703C146.597 173.077 146.741 173.433 146.976 173.725C147.211 174.017 147.527 174.233 147.884 174.345L174.388 182.652C175.181 182.901 176.018 182.971 176.841 182.858C177.664 182.745 178.451 182.452 179.148 181.998C179.844 181.545 180.433 180.943 180.872 180.235C181.311 179.527 181.589 178.731 181.686 177.903C182.365 172.294 181.846 166.604 180.164 161.211ZM179.798 177.672C179.733 178.222 179.549 178.751 179.258 179.221C178.967 179.691 178.576 180.091 178.114 180.392C177.651 180.693 177.129 180.889 176.583 180.964C176.037 181.04 175.481 180.994 174.954 180.829L148.452 172.54L172.941 159.631C173.415 159.379 173.934 159.224 174.467 159.174C174.897 159.132 175.331 159.168 175.749 159.281C176.357 159.442 176.915 159.756 177.369 160.193C177.824 160.63 178.161 161.175 178.348 161.778C179.949 166.914 180.443 172.332 179.798 177.672Z" fill="#F5C5BD"/>
<path d="M280.211 97.9914C279.942 97.9428 279.666 97.9478 279.398 98.0062C279.131 98.0646 278.877 98.1752 278.651 98.3318C278.426 98.4884 278.233 98.6878 278.084 98.9186C277.936 99.1495 277.833 99.4073 277.784 99.6773C277.482 101.331 278.428 103.64 278.815 104.483C278.833 104.521 278.859 104.554 278.892 104.579C278.924 104.604 278.963 104.621 279.004 104.629C279.044 104.636 279.086 104.634 279.126 104.622C279.166 104.609 279.202 104.588 279.232 104.559C279.89 103.904 281.6 102.074 281.902 100.42C281.952 100.149 281.947 99.8704 281.889 99.601C281.831 99.3315 281.72 99.0766 281.563 98.8507C281.406 98.6249 281.206 98.4327 280.974 98.2852C280.742 98.1377 280.483 98.0378 280.211 97.9914ZM327.797 107.419C328.505 103.014 328.383 98.518 327.437 94.1649C326.627 90.4484 325.158 86.9104 323.1 83.7189C321.03 80.5469 318.465 78.0233 315.694 76.424C314.854 75.9365 313.971 75.5265 313.057 75.1989C311.01 74.4721 308.884 73.9929 306.722 73.7716C305.414 73.6082 304.551 73.5004 303.298 72.9299C305.263 69.7209 309.807 63.2309 313.397 61.9261C313.586 61.8611 313.762 61.759 313.912 61.6255C314.062 61.4921 314.184 61.3301 314.272 61.149C314.359 60.9679 314.409 60.7714 314.42 60.5708C314.431 60.3703 314.402 60.1698 314.334 59.981C314.267 59.7923 314.162 59.6191 314.027 59.4715C313.892 59.3239 313.728 59.205 313.547 59.1216C313.365 59.0382 313.168 58.992 312.968 58.9858C312.768 58.9796 312.568 59.0134 312.381 59.0853C307.4 60.871 302.281 68.7723 300.668 71.4276C299.532 70.619 299.007 69.9254 298.208 68.868C296.935 67.1069 295.456 65.5048 293.804 64.0955C293.063 63.4672 292.267 62.9076 291.424 62.4236C288.642 60.8173 285.174 59.8576 281.389 59.6487C277.597 59.4638 273.799 59.9613 270.177 61.1176C265.934 62.4742 261.979 64.6165 258.518 67.433C254.479 70.7375 251.086 74.7638 248.511 79.3064C244.088 86.9658 241.577 96.2761 241.437 105.518C241.354 109.448 241.77 113.37 242.675 117.19C243.603 120.926 244.979 123.982 246.763 126.276C248.221 128.228 250.057 129.864 252.161 131.088C253.454 131.797 254.786 132.432 256.152 132.989C261.867 135.403 267.26 138.517 272.208 142.259C273.374 143.163 274.591 144 275.853 144.766C277.965 145.977 280.3 146.748 282.719 147.036C285.598 147.434 288.933 147.097 292.632 146.033C296.393 144.907 299.998 143.306 303.359 141.268C311.302 136.531 318.1 129.696 322.522 122.037C325.169 117.531 326.958 112.574 327.797 107.419ZM300.018 75.5367C301.85 76.6702 303.924 77.356 306.073 77.5391L305.963 77.5639C305.827 77.5903 305.688 77.6228 305.551 77.6523L305.186 77.7357L304.769 77.8487L304.409 77.9511C304.268 77.9943 304.128 78.0424 303.99 78.0874C303.852 78.1324 303.753 78.1641 303.64 78.2075C303.527 78.2508 303.353 78.3157 303.213 78.3637C303.073 78.4117 302.987 78.4504 302.875 78.4985C302.763 78.5466 302.581 78.6265 302.435 78.6914C302.29 78.7562 302.221 78.785 302.115 78.8366C302.009 78.8882 301.805 78.9918 301.652 79.0687C301.5 79.1457 301.452 79.1663 301.354 79.2183C301.185 79.3099 301.005 79.4196 300.843 79.5069C300.763 79.5538 300.683 79.5959 300.601 79.641C300.35 79.7903 300.101 79.9443 299.855 80.1079C299.608 80.2714 299.422 80.3932 299.206 80.5382L298.999 80.6885C298.855 80.7909 298.712 80.8934 298.571 81.0053C298.488 81.066 298.406 81.1315 298.325 81.1969C298.196 81.2955 298.069 81.3958 297.942 81.4992L297.684 81.7167C297.564 81.8205 297.443 81.9195 297.323 82.0233C297.203 82.1271 297.148 82.1801 297.055 82.2714C296.962 82.3628 296.825 82.4765 296.709 82.5868L296.444 82.8366L296.126 83.1723C296.035 83.2606 295.947 83.3507 295.871 83.4274C295.795 83.5041 295.649 83.6532 295.542 83.7687C295.435 83.8841 295.367 83.9535 295.282 84.0453C295.197 84.1371 295.07 84.281 294.964 84.4013C294.928 84.4647 294.866 84.5095 294.814 84.5642C294.851 84.5008 294.859 84.4248 294.883 84.3545C294.934 84.203 294.981 84.0528 295.033 83.9013C295.084 83.7499 295.105 83.6575 295.142 83.5379C295.179 83.4184 295.232 83.2358 295.276 83.0839C295.32 82.932 295.342 82.8444 295.366 82.7334L295.483 82.2815L295.567 81.9276C295.603 81.7752 295.634 81.6241 295.665 81.473C295.696 81.322 295.716 81.2404 295.746 81.1174C295.777 80.9943 295.805 80.8087 295.831 80.6511L295.891 80.3191C295.916 80.1568 295.94 79.9975 295.961 79.8365C295.977 79.7328 295.993 79.6292 296.004 79.5269C296.029 79.352 296.046 79.1767 296.064 78.9984L296.093 78.7411C296.117 78.485 296.136 78.2225 296.141 77.9638C296.146 77.7051 296.168 77.3756 296.172 77.0841C296.17 76.9904 296.166 76.8997 296.168 76.8077C296.169 76.6112 296.171 76.4069 296.162 76.2207C296.158 76.1097 296.149 76 296.142 75.8873C296.135 75.7745 296.125 75.543 296.112 75.3707C296.099 75.1983 296.089 75.14 296.078 75.0208C296.066 74.9015 296.046 74.7007 296.025 74.5434C296.003 74.3861 295.991 74.3028 295.972 74.1831C295.953 74.0634 295.927 73.8794 295.894 73.7355C295.861 73.5916 295.848 73.4957 295.823 73.3725C295.798 73.2494 295.765 73.0852 295.732 72.9413L295.641 72.5787C295.604 72.4408 295.569 72.3 295.53 72.1604L295.419 71.8029C295.376 71.6694 295.335 71.5328 295.29 71.4023L295.256 71.2942C296.489 73.0638 298.12 74.517 300.018 75.5367ZM291.627 91.2781C291.46 92.1732 291.511 93.0948 291.777 93.9639C292.042 94.8331 292.514 95.6239 293.152 96.2687C294.909 98.0479 295.972 99.8851 296.313 101.716C296.682 103.749 296.127 105.771 294.715 107.565C292.63 110.205 288.999 112.718 284.214 114.83C281.905 115.854 279.527 116.711 277.097 117.395C276.916 117.443 276.727 117.444 276.546 117.399L291.627 91.2781ZM262.318 130.157L262.18 130.166L262.069 130.17C262.024 130.173 261.978 130.174 261.932 130.172L261.822 130.176L261.686 130.175L261.57 130.176L261.441 130.17L261.321 130.169L261.189 130.161L261.07 130.153L260.94 130.142L260.815 130.13C260.771 130.129 260.731 130.122 260.689 130.118L260.561 130.105L260.433 130.091L260.303 130.073L260.178 130.053L260.044 130.036L259.924 130.015L259.785 129.991L259.667 129.967L259.523 129.94L259.407 129.918L259.258 129.884L259.14 129.86L258.991 129.826L258.869 129.796L258.725 129.761L258.602 129.73L258.454 129.689L258.336 129.657L258.18 129.615L258.067 129.582L257.904 129.537L257.788 129.502L257.645 129.459C256.424 128.96 255.233 128.391 254.076 127.758C252.396 126.779 250.933 125.468 249.776 123.902C246.827 120.114 245.136 113.253 245.254 105.548C245.384 96.9481 247.712 88.3012 251.812 81.2003C254.151 77.0679 257.234 73.4045 260.905 70.3971C263.995 67.88 267.527 65.966 271.318 64.7551C277.895 62.6752 284.866 63.049 289.514 65.7325C290.142 66.0932 290.738 66.5084 291.293 66.9733L291.533 67.2524L291.759 67.5198L291.988 67.8171L292.201 68.0931L292.421 68.4055L292.626 68.6966C292.693 68.7957 292.753 68.8991 292.814 69.0024C292.874 69.1058 292.946 69.2036 293.007 69.3069L293.176 69.6179C293.234 69.7242 293.298 69.8293 293.352 69.937L293.504 70.2501L293.665 70.5808L293.801 70.9008C293.849 71.0127 293.899 71.1264 293.946 71.2462C293.993 71.3659 294.023 71.4597 294.062 71.5665L294.192 71.9235C294.228 72.0286 294.26 72.1396 294.292 72.2507C294.324 72.3618 294.368 72.4923 294.401 72.6159C294.434 72.7395 294.461 72.8393 294.488 72.9517C294.515 73.0641 294.553 73.1989 294.581 73.3238C294.61 73.4487 294.627 73.5636 294.651 73.682L294.726 74.0514L294.782 74.426L294.836 74.7911L294.876 75.1803C294.885 75.3025 294.903 75.4252 294.912 75.5475C294.922 75.6697 294.926 75.8291 294.939 75.9656C294.952 76.1021 294.954 76.1958 294.957 76.3099C294.959 76.4239 294.961 76.6424 294.962 76.8078C294.962 76.9046 294.967 77 294.962 77.0981C294.961 77.3633 294.953 77.628 294.941 77.891C294.762 81.2131 293.697 84.8207 291.868 88.3699C291.527 88.3003 291.173 88.3232 290.843 88.4362C290.513 88.5492 290.219 88.7483 289.99 89.0128C289.495 89.5861 288.849 90.0088 288.127 90.2326C287.405 90.4563 286.636 90.4721 285.907 90.278C283.166 89.565 280.726 89.5777 278.65 90.323C276.259 91.1811 274.453 92.992 273.432 95.5584C270.182 103.713 273.524 116.214 273.679 116.75C273.843 117.338 274.194 117.856 274.681 118.222L274.03 119.348C273.835 119.686 273.643 120.018 273.457 120.341C273.406 120.429 273.358 120.514 273.309 120.598C273.26 120.683 273.222 120.749 273.18 120.822C273.138 120.894 273.122 120.921 273.093 120.972L272.908 121.292L272.809 121.465L272.645 121.748C272.598 121.83 272.549 121.914 272.502 121.996L272.388 122.192L272.217 122.447L272.119 122.616L271.955 122.86C271.924 122.914 271.891 122.971 271.857 123.029L271.7 123.26C271.669 123.314 271.634 123.375 271.587 123.42C271.541 123.466 271.464 123.599 271.401 123.687C271.379 123.726 271.354 123.769 271.331 123.808L271.148 124.064C271.125 124.103 271.102 124.143 271.065 124.173C271.009 124.27 270.935 124.348 270.874 124.434C270.853 124.47 270.834 124.503 270.815 124.536C270.761 124.63 270.683 124.709 270.615 124.791C270.598 124.822 270.579 124.855 270.561 124.885C270.507 124.979 270.431 125.055 270.364 125.137C270.348 125.164 270.331 125.194 270.315 125.222C270.264 125.309 270.189 125.378 270.125 125.454C270.106 125.487 270.088 125.517 270.056 125.539C270.009 125.62 269.934 125.686 269.874 125.756L269.799 125.845C269.735 125.921 269.668 125.995 269.606 126.068C269.584 126.091 269.563 126.116 269.544 126.141L269.343 126.363C269.331 126.385 269.317 126.409 269.29 126.421L269.098 126.628L269.036 126.694C268.975 126.759 268.91 126.822 268.849 126.887L268.787 126.952C268.722 127.015 268.663 127.077 268.6 127.138C268.586 127.162 268.572 127.186 268.535 127.201L268.347 127.382L268.29 127.438C268.226 127.494 268.165 127.551 268.104 127.608L268.04 127.664C267.979 127.721 267.916 127.774 267.852 127.829C267.84 127.85 267.813 127.863 267.794 127.88C267.732 127.933 267.668 127.989 267.602 128.039C267.592 128.057 267.582 128.076 267.548 128.085C267.515 128.094 267.421 128.188 267.357 128.236C267.34 128.251 267.323 128.265 267.305 128.278C267.244 128.327 267.182 128.372 267.123 128.419L267.061 128.463L266.875 128.598L266.82 128.638L266.635 128.765L266.576 128.803L266.393 128.919L266.335 128.958L266.159 129.062C266.137 129.077 266.114 129.09 266.091 129.103L265.919 129.201L265.852 129.239L265.682 129.326L265.611 129.365L265.44 129.447L265.372 129.481L265.201 129.555C265.178 129.568 265.153 129.58 265.129 129.59C265.074 129.615 265.019 129.635 264.961 129.658L264.888 129.688L264.728 129.749L264.647 129.779L264.491 129.834L264.407 129.862L264.252 129.909L264.164 129.935L264.008 129.977L263.922 130L263.769 130.037L263.681 130.058L263.529 130.091L263.44 130.108L263.289 130.134L263.194 130.152L263.05 130.173L262.951 130.184L262.808 130.202L262.703 130.21L262.564 130.223L262.318 130.157ZM290.59 90.6796L275.506 116.807C275.377 116.672 275.284 116.507 275.234 116.327C274.607 113.883 274.155 111.396 273.882 108.885C273.319 103.685 273.68 99.2845 274.924 96.1584C275.771 94.039 277.245 92.5473 279.19 91.8505C280.955 91.2151 283.077 91.2167 285.488 91.8638C286.369 92.0956 287.293 92.1089 288.182 91.9026C289.071 91.6963 289.898 91.2766 290.59 90.6796ZM266.385 133.805C264.645 132.801 263.149 132.013 261.824 131.365L262.069 131.358L262.378 131.343L262.66 131.32C262.761 131.311 262.861 131.304 262.962 131.289C263.062 131.275 263.146 131.263 263.241 131.25L263.532 131.204L263.811 131.144L264.095 131.082L264.369 131.003C264.462 130.98 264.554 130.953 264.648 130.922C264.742 130.892 264.831 130.863 264.921 130.831L265.195 130.731C265.283 130.697 265.374 130.657 265.463 130.62L265.735 130.504L266.001 130.375C266.091 130.331 266.181 130.286 266.268 130.24C266.355 130.193 266.445 130.141 266.531 130.09L266.799 129.938L267.06 129.771C267.147 129.717 267.233 129.658 267.324 129.597C267.415 129.537 267.493 129.478 267.581 129.416C267.669 129.354 267.755 129.287 267.842 129.22C267.929 129.153 268.015 129.087 268.099 129.018C268.182 128.95 268.276 128.879 268.363 128.804C268.45 128.73 268.53 128.66 268.617 128.585C268.705 128.511 268.79 128.431 268.888 128.339C268.985 128.246 269.055 128.181 269.138 128.1C269.22 128.019 269.314 127.933 269.399 127.849C269.484 127.765 269.57 127.678 269.651 127.592C269.733 127.506 269.829 127.409 269.916 127.314C270.003 127.219 270.081 127.132 270.168 127.037C270.255 126.942 270.344 126.844 270.431 126.742C270.455 126.699 270.496 126.671 270.526 126.632L270.482 126.771C270.437 126.898 270.396 127.024 270.358 127.146C270.319 127.269 270.279 127.387 270.244 127.503C270.208 127.62 270.171 127.747 270.137 127.868C270.103 127.99 270.069 128.103 270.041 128.215C270.012 128.328 269.981 128.451 269.954 128.567C269.926 128.684 269.899 128.794 269.863 128.918L269.785 129.275C269.764 129.388 269.74 129.499 269.721 129.609C269.702 129.718 269.686 129.83 269.671 129.938C269.657 130.046 269.636 130.159 269.623 130.264C269.61 130.37 269.596 130.478 269.586 130.585L269.554 130.905L269.537 131.217C269.534 131.32 269.526 131.424 269.526 131.529C269.526 131.633 269.523 131.728 269.524 131.83L269.527 132.137C269.53 132.236 269.538 132.333 269.544 132.433L269.565 132.731L269.598 133.02L269.636 133.315C269.654 133.41 269.673 133.502 269.687 133.594L269.744 133.885C269.763 133.976 269.79 134.068 269.814 134.159C269.838 134.249 269.86 134.35 269.887 134.442C269.914 134.534 269.943 134.623 269.969 134.715L270.06 134.989L270.168 135.261L270.269 135.529L270.394 135.798L270.517 136.058L270.66 136.33C270.697 136.404 270.732 136.476 270.774 136.549C269.555 135.712 268.121 134.808 266.379 133.802L266.385 133.805ZM301.419 137.975C294.805 141.929 288.017 143.895 283.262 143.235C281.328 143.017 279.461 142.405 277.773 141.439C276.646 140.754 275.559 140.007 274.515 139.2L274.405 139.1L274.317 139.017L274.196 138.899L274.111 138.817L273.997 138.703L273.91 138.617L273.8 138.509L273.713 138.418L273.61 138.311L273.523 138.22L273.419 138.108L273.339 138.017L273.236 137.905L273.159 137.817L273.063 137.705L272.983 137.615L272.893 137.506L272.815 137.413L272.733 137.305L272.653 137.207L272.573 137.104L272.497 137L272.421 136.895C272.387 136.876 272.37 136.83 272.348 136.793L272.275 136.69L272.2 136.583L272.133 136.484L272.061 136.374L272 136.27L271.945 136.158L271.887 136.056L271.818 135.94L271.765 135.845L271.7 135.722L271.648 135.624L271.587 135.501L271.542 135.406L271.483 135.279L271.437 135.185L271.382 135.052L271.342 134.961L271.288 134.825L271.257 134.734L271.203 134.591L271.173 134.505L271.126 134.357L271.1 134.269L271.055 134.119L271.033 134.033L270.991 133.876L270.97 133.788L270.933 133.629L270.915 133.543L270.885 133.38L270.87 133.295L270.843 133.126L270.832 133.048C270.823 132.986 270.813 132.928 270.807 132.869C270.804 132.842 270.802 132.815 270.802 132.789L270.78 132.603L270.776 132.528L270.761 132.338L270.76 132.257L270.75 132.066L270.75 131.99L270.748 131.792C270.747 131.765 270.748 131.739 270.75 131.712L270.752 131.508L270.756 131.438L270.765 131.222L270.769 131.152L270.786 130.928L270.793 130.86L270.817 130.632L270.825 130.556C270.836 130.482 270.843 130.406 270.856 130.328C270.858 130.306 270.861 130.284 270.866 130.262C270.876 130.183 270.887 130.101 270.901 130.02C270.916 129.94 270.909 129.973 270.914 129.951C270.925 129.869 270.941 129.786 270.955 129.705C270.967 129.684 270.965 129.654 270.971 129.63C270.987 129.546 271.001 129.466 271.02 129.385L271.036 129.301C271.055 129.22 271.074 129.138 271.09 129.055L271.111 128.978L271.173 128.724C271.179 128.695 271.187 128.665 271.196 128.637C271.216 128.552 271.24 128.469 271.263 128.381L271.288 128.296C271.314 128.21 271.336 128.122 271.362 128.036L271.388 127.95L271.471 127.681C271.483 127.659 271.497 127.635 271.495 127.605L271.587 127.321C271.598 127.293 271.608 127.265 271.615 127.236C271.664 127.152 271.68 127.048 271.715 126.952C271.731 126.925 271.747 126.898 271.748 126.862L271.852 126.576C271.87 126.546 271.887 126.516 271.891 126.474C271.925 126.381 271.962 126.289 271.997 126.193C272.013 126.166 272.031 126.136 272.046 126.109C272.084 126.009 272.124 125.912 272.166 125.811C272.183 125.781 272.202 125.748 272.22 125.718C272.257 125.618 272.299 125.518 272.341 125.417C272.36 125.384 272.38 125.351 272.4 125.315C272.453 125.224 272.484 125.121 272.531 125.02C272.553 124.98 272.576 124.941 272.584 124.893L272.714 124.606C272.736 124.567 272.761 124.524 272.783 124.485C272.837 124.392 272.873 124.288 272.921 124.19C272.969 124.093 272.988 124.076 273.004 124.013L273.125 123.761C273.158 123.703 273.192 123.646 273.223 123.592L273.351 123.328L273.449 123.159L273.584 122.883L273.698 122.686C273.745 122.605 273.793 122.52 273.841 122.439L274.004 122.155L274.104 121.983L274.289 121.663C274.318 121.612 274.346 121.563 274.376 121.512C274.405 121.461 274.461 121.364 274.505 121.288C274.548 121.213 274.602 121.119 274.653 121.032C274.839 120.709 275.031 120.377 275.226 120.039L275.876 118.912C276.437 119.15 277.061 119.196 277.652 119.044C278.181 118.903 290.689 115.557 296.128 108.662C297.84 106.495 298.505 104.025 298.053 101.526C297.66 99.3545 296.452 97.2358 294.479 95.2271C293.946 94.6929 293.575 94.0185 293.408 93.2813C293.24 92.544 293.284 91.7735 293.533 91.058C293.645 90.7283 293.668 90.3748 293.6 90.0339C293.531 89.693 293.373 89.3769 293.142 89.1179C295.309 85.7474 297.893 83.0331 300.681 81.2168C300.906 81.0692 301.131 80.9293 301.357 80.802C301.439 80.7491 301.525 80.7057 301.609 80.6575C301.752 80.5754 301.897 80.4902 302.042 80.4128C302.187 80.3354 302.246 80.3092 302.349 80.2559C302.452 80.2026 302.602 80.1239 302.725 80.0702C302.848 80.0165 302.95 79.971 303.061 79.9181L303.418 79.7579L303.761 79.6218L304.113 79.4831L304.471 79.3635C304.585 79.3249 304.698 79.2815 304.816 79.2447C304.933 79.2078 305.061 79.1731 305.185 79.1397L305.516 79.0451L305.89 78.9591C306.002 78.9313 306.114 78.9035 306.223 78.8818L306.598 78.8161C306.709 78.7961 306.823 78.7731 306.933 78.756C307.043 78.739 307.184 78.7238 307.304 78.709L307.649 78.6666L308.017 78.6412L308.364 78.6161C308.484 78.609 308.607 78.6115 308.728 78.6092L309.082 78.6001C309.202 78.6008 309.321 78.6093 309.442 78.6147C309.563 78.6202 309.682 78.6162 309.801 78.6247L310.155 78.6562L310.536 78.6908L310.882 78.7374L311.253 78.7871L311.613 78.8579L311.975 78.9257C312.655 79.1746 313.312 79.4826 313.939 79.8464C318.587 82.5299 322.396 88.3803 323.883 95.1161C324.729 99.0095 324.835 103.031 324.195 106.97C323.426 111.652 321.795 116.155 319.386 120.246C315.12 127.219 308.795 133.559 301.413 137.971L301.419 137.975ZM285.57 108.395C286.493 108.309 288.967 107.973 290.248 106.885C290.672 106.522 290.935 106.005 290.98 105.448C291.024 104.891 290.846 104.34 290.485 103.917C290.124 103.493 289.609 103.232 289.054 103.189C288.499 103.147 287.949 103.327 287.525 103.691C286.244 104.779 285.513 107.175 285.276 108.072C285.265 108.115 285.264 108.159 285.275 108.201C285.285 108.243 285.306 108.282 285.335 108.314C285.364 108.347 285.401 108.371 285.442 108.385C285.483 108.399 285.527 108.403 285.57 108.395Z" fill="#F5C5BD"/>
<path d="M403.755 216.197C404.132 215.933 404.389 215.529 404.469 215.075C404.549 214.62 404.446 214.152 404.183 213.772C403.39 212.624 401.477 211.823 400.755 211.555C400.722 211.542 400.688 211.538 400.653 211.542C400.619 211.546 400.586 211.558 400.558 211.578C400.53 211.598 400.506 211.624 400.491 211.655C400.475 211.686 400.467 211.72 400.467 211.754C400.462 212.528 400.534 214.606 401.328 215.757C401.458 215.947 401.624 216.109 401.817 216.234C402.01 216.359 402.225 216.444 402.451 216.485C402.677 216.526 402.908 216.521 403.132 216.472C403.356 216.422 403.567 216.329 403.755 216.197ZM431.793 196.078C428.951 191.425 425.264 188.014 422.005 185.018C419.151 182.412 416.491 179.938 414.729 176.992C414.232 176.158 413.73 175.304 413.247 174.477C410.924 170.501 408.519 166.389 405.411 163.197C401.626 159.311 397.289 157.282 392.158 157.004C389.714 156.89 387.267 157.109 384.883 157.654C383.874 152.966 382.72 145.093 384.446 141.4C384.554 141.187 384.618 140.953 384.634 140.714C384.651 140.475 384.619 140.235 384.541 140.008C384.463 139.781 384.341 139.572 384.181 139.393C384.022 139.214 383.828 139.069 383.612 138.967C383.396 138.865 383.161 138.807 382.922 138.797C382.684 138.787 382.446 138.826 382.222 138.91C381.999 138.995 381.795 139.124 381.622 139.289C381.45 139.454 381.312 139.653 381.217 139.873C378.867 144.909 380.442 154.098 381.432 158.582C379.047 159.307 376.774 160.356 374.674 161.7C370.372 164.52 367.631 168.445 366.296 173.689C365.197 178.008 365.173 182.771 365.147 187.376C365.141 188.334 365.137 189.324 365.121 190.295C365.07 193.727 363.984 197.205 362.836 200.883C361.518 205.105 360.023 209.891 359.889 215.355C359.741 221.638 361.418 227.844 365.015 234.322C369 241.501 374.773 246.505 382.161 249.145C389.065 251.626 396.019 251.506 400.641 250.971C405.35 250.436 409.952 249.203 414.297 247.312C418.561 245.448 424.65 242.087 429.386 236.491C434.463 230.493 436.977 223.269 436.827 215.08C436.71 207.648 435.049 201.449 431.793 196.078ZM396.083 202.928C397.745 203.927 405.26 208.651 407.684 214.278C408.037 215.029 408.223 215.848 408.228 216.677C408.233 217.507 408.058 218.327 407.714 219.081C407.071 220.437 405.865 221.644 404.119 222.664C403.172 223.218 402.434 224.072 402.022 225.092L396.083 202.928ZM400.186 225.584C399.319 224.906 398.253 224.536 397.156 224.53C395.138 224.519 393.484 224.07 392.255 223.223C391.58 222.743 391.017 222.12 390.607 221.399C390.197 220.678 389.948 219.876 389.879 219.049C389.161 212.965 393.309 205.108 394.247 203.42L400.186 225.584ZM393.663 201.242C393.301 201.462 392.999 201.77 392.786 202.137C392.554 202.531 387.125 211.933 387.991 219.269C388.088 220.367 388.423 221.43 388.973 222.385C389.523 223.339 390.274 224.161 391.174 224.794C392.731 225.871 394.74 226.426 397.15 226.441C397.724 226.442 398.286 226.606 398.772 226.913C399.258 227.22 399.649 227.657 399.9 228.176C400.023 228.426 400.198 228.647 400.415 228.822C400.631 228.997 400.883 229.123 401.152 229.19L404.694 242.411C404.711 242.474 404.721 242.539 404.725 242.605C404.725 242.605 404.73 242.625 404.733 242.635C404.734 242.693 404.732 242.752 404.726 242.81C404.732 242.833 404.738 242.854 404.716 242.881L404.687 243.026C404.514 243.722 403.812 244.52 402.885 245.148L402.649 245.301L402.612 245.311L402.367 245.452L402.166 245.56L402.046 245.621L401.726 245.768L401.672 245.783C401.544 245.839 401.413 245.888 401.285 245.933C401.151 245.969 401.014 246.006 400.88 246.042L400.605 246.116L400.544 246.132L400.336 246.17L400.085 246.201C392.007 247.138 377.248 246.546 369.167 231.979C362.085 219.22 364.769 210.619 367.368 202.3C368.621 198.279 369.809 194.482 369.872 190.358C369.885 189.362 369.889 188.372 369.895 187.389C369.946 178.291 369.99 170.437 377.266 165.664C378.024 165.154 378.857 164.765 379.734 164.512C380.049 164.428 380.37 164.371 380.694 164.342C382.802 164.167 384.064 165.445 384.294 166.304L393.663 201.242ZM405.634 245.208C405.851 244.937 406.04 244.645 406.198 244.336L406.227 244.349C406.352 244.428 406.48 244.502 406.613 244.571L406.671 244.599C406.807 244.667 406.95 244.73 407.082 244.792L407.098 244.787C406.624 244.961 406.155 245.087 405.634 245.208ZM385.149 162.469L384.988 162.711L384.938 162.793L384.84 162.964C384.821 162.994 384.804 163.025 384.789 163.057C384.757 163.112 384.729 163.167 384.701 163.225L384.657 163.312L384.573 163.508L384.55 163.558L384.51 163.529C384.455 163.486 384.396 163.44 384.335 163.399L384.252 163.345L384.096 163.243L384.005 163.187L383.832 163.09L383.752 163.046C383.664 163.001 383.577 162.956 383.487 162.915C384.037 162.768 384.606 162.615 385.163 162.466L385.149 162.469ZM432.081 215.129C432.359 231.771 419.884 239.69 412.416 242.904L412.187 243.001L411.968 243.082L411.924 243.093L411.646 243.168C409.877 243.642 407.801 243.293 406.923 242.499C406.829 242.411 406.744 242.313 406.672 242.205C406.604 242.108 406.553 242 406.522 241.885L402.988 228.698C403.189 228.506 403.345 228.271 403.445 228.011C403.545 227.751 403.586 227.472 403.566 227.194C403.525 226.619 403.645 226.044 403.913 225.535C404.181 225.026 404.586 224.604 405.083 224.315C407.163 223.097 408.625 221.612 409.431 219.902C409.895 218.903 410.135 217.813 410.134 216.71C410.133 215.606 409.892 214.516 409.426 213.515C406.502 206.719 397.101 201.298 396.704 201.076C396.336 200.864 395.921 200.748 395.497 200.739L386.141 165.824C385.879 164.844 386.507 162.712 389.195 161.992L389.496 161.911C390.165 161.77 390.847 161.708 391.53 161.727C391.652 161.727 391.776 161.733 391.893 161.741C400.588 162.234 404.553 169.014 409.143 176.868C409.64 177.717 410.138 178.572 410.651 179.427C412.767 182.968 415.689 185.657 418.79 188.518C425.208 194.439 431.837 200.545 432.083 215.135L432.081 215.129ZM394.256 218.735C394.714 218.775 395.169 218.63 395.521 218.333C395.872 218.036 396.091 217.61 396.13 217.15C396.241 215.756 395.265 213.921 394.874 213.253C394.857 213.22 394.832 213.191 394.802 213.17C394.771 213.15 394.735 213.137 394.698 213.135C394.661 213.132 394.624 213.14 394.59 213.156C394.557 213.172 394.529 213.197 394.508 213.228C394.017 213.822 392.76 215.472 392.648 216.863C392.629 217.091 392.656 217.321 392.726 217.54C392.796 217.758 392.908 217.961 393.056 218.136C393.204 218.31 393.385 218.454 393.588 218.559C393.792 218.664 394.013 218.727 394.241 218.746L394.256 218.735Z" fill="#F5C5BD"/>
</svg>
