<svg width="24" height="25" viewBox="0 0 24 25" fill="none" xmlns="http://www.w3.org/2000/svg">
<path d="M23.35 9.96245L13.35 0.87495C12.9813 0.537649 12.4997 0.350586 12 0.350586C11.5003 0.350586 11.0187 0.537649 10.65 0.87495L0.649962 9.96245C0.445217 10.1498 0.281693 10.3776 0.169789 10.6316C0.0578849 10.8855 4.97155e-05 11.16 -3.84668e-05 11.4374V22.9499C-0.00816907 23.4542 0.169844 23.9437 0.499962 24.3249C0.687321 24.538 0.918125 24.7085 1.17686 24.8249C1.43559 24.9413 1.71624 25.001 1.99996 24.9999H7.99996C8.26518 24.9999 8.51953 24.8946 8.70707 24.7071C8.8946 24.5195 8.99996 24.2652 8.99996 23.9999V17.9999C8.99996 17.7347 9.10532 17.4804 9.29286 17.2928C9.48039 17.1053 9.73475 16.9999 9.99996 16.9999H14C14.2652 16.9999 14.5195 17.1053 14.7071 17.2928C14.8946 17.4804 15 17.7347 15 17.9999V23.9999C15 24.2652 15.1053 24.5195 15.2929 24.7071C15.4804 24.8946 15.7347 24.9999 16 24.9999H22C22.3317 25.0029 22.6587 24.9211 22.95 24.7624C23.267 24.5898 23.5317 24.3351 23.7164 24.025C23.9011 23.715 23.9991 23.3609 24 22.9999V11.4374C23.9999 11.16 23.942 10.8855 23.8301 10.6316C23.7182 10.3776 23.5547 10.1498 23.35 9.96245Z" fill="black"/>
</svg>
