<svg width="148" height="32" viewBox="0 0 148 32" fill="none" xmlns="http://www.w3.org/2000/svg">
<path fill-rule="evenodd" clip-rule="evenodd" d="M5.19204 10.9809C4.76629 12.5485 4.64337 14.1829 4.82986 15.7965C4.82986 15.9776 4.92864 16.2657 4.92864 16.4221C4.92864 16.5785 5.06034 16.9407 5.1015 17.0971C5.36685 18.0457 5.82657 18.9287 6.45144 19.6901C6.95645 20.3066 7.61474 20.7795 8.36025 21.0613C9.10576 21.343 9.91226 21.4237 10.6988 21.2952C11.9503 21.0996 13.1506 20.6575 14.2301 19.9946C14.3371 19.937 14.3947 19.9206 14.5017 19.8712C15.1464 19.4486 15.9154 19.257 16.683 19.3279C17.0399 19.4292 17.3655 19.6189 17.6296 19.8794C17.4497 19.4772 17.1655 19.1305 16.8065 18.8751C16.4027 18.6055 15.9538 18.4103 15.4812 18.2989C14.477 17.9861 13.3164 17.8791 12.3533 17.5251C11.4759 17.2626 10.7185 16.7003 10.2132 15.9364C9.72484 15.0547 9.49383 14.0536 9.54642 13.0471L9.79336 13.3928C9.89028 13.5145 9.99475 13.63 10.1062 13.7386L10.8058 14.323C12.4521 15.4343 15.1273 15.7718 17.2756 15.9693C17.679 14.5535 17.9589 13.7303 17.4156 12.3227C17.0358 11.4913 16.4457 10.7735 15.7035 10.2401C15.3466 9.96853 14.9664 9.72888 14.5675 9.52394C14.1724 9.31815 13.7444 9.10412 13.2999 8.92303L11.9911 8.36327C11.0954 7.9984 10.2622 7.49568 9.52173 6.87334L9.21717 6.58523C9.02889 6.45603 8.85984 6.30083 8.71506 6.12425C8.38297 5.79511 8.13946 5.38736 8.00716 4.93889C7.96585 4.66606 7.96585 4.38856 8.00716 4.11572C7.93265 4.23591 7.86928 4.36266 7.81784 4.49438C7.74376 4.65078 7.68614 4.74133 7.59559 4.89773C7.50505 5.05413 7.36512 5.47395 7.21695 5.7209C6.93576 6.25599 6.68298 6.80553 6.45967 7.36724C6.22096 7.92699 5.98225 8.5279 5.7847 9.11235C5.58715 9.6968 5.42252 10.38 5.2085 10.9809" fill="#BCB7B4"/>
<path fill-rule="evenodd" clip-rule="evenodd" d="M10.6988 4.75791C10.4848 5.06249 9.87565 5.8198 9.50524 6.26431L9.8098 6.53596C10.1473 6.79937 10.4848 7.05455 10.847 7.28504C11.2788 7.55448 11.7332 7.78584 12.2051 7.9765H12.271C12.9978 7.14017 13.6583 6.24844 14.2465 5.30944L14.7815 6.33016C15.1463 6.99138 15.5561 7.62672 16.008 8.23168C16.115 8.34693 16.2302 8.55272 16.3373 8.66796L17.7448 10.3966C17.8728 10.5359 17.9937 10.6815 18.107 10.8329L18.8396 11.6561C18.8841 11.7378 18.9364 11.815 18.996 11.8866C19.0667 11.9421 19.1279 12.0088 19.1771 12.0841C19.2429 12.1829 20.099 13.2612 20.2554 13.4917C21.3715 14.9081 22.1638 16.5518 22.5766 18.3073C22.775 19.62 22.6679 20.9609 22.2638 22.2255C21.4646 24.6329 19.9715 26.7503 17.9724 28.3116C15.9733 29.8729 13.5573 30.8084 11.028 31.0005C9.11215 31.1592 7.18331 30.9752 5.33195 30.4572C5.05209 30.3831 4.80515 30.3008 4.50882 30.2103C4.21249 30.1197 3.92439 29.9716 3.75977 29.9304L2.80493 29.4941C2.6403 29.4118 2.51683 29.346 2.36867 29.2554C2.22327 29.1585 2.06891 29.0758 1.90771 29.0085C2.25137 29.3541 2.63235 29.6606 3.04364 29.9222C4.41707 30.8312 5.9643 31.4451 7.58734 31.7249C10.2165 32.2065 12.9227 32.0541 15.4812 31.2804C17.094 30.7546 18.6095 29.9676 19.9673 28.9508C20.0144 28.906 20.0669 28.8673 20.1237 28.8356L20.6093 28.4569C20.8233 28.2758 21.0127 28.0865 21.2349 27.8972C21.4571 27.7078 21.416 27.7161 21.523 27.6091C22.2145 26.9261 22.8223 26.1635 23.3339 25.3371C24.2887 23.8216 24.8477 22.0907 24.9599 20.303C25.0721 18.5153 24.7338 16.7281 23.9759 15.1051C23.47 13.9844 22.8668 12.9102 22.1733 11.8948C21.9016 11.5161 21.6465 11.0716 21.3501 10.6847C20.6834 9.65576 20.0084 8.74205 19.317 7.6637C19.1853 7.45791 19.0701 7.25211 18.9301 7.04632L18.7408 6.74175C18.4033 6.1326 17.7777 5.09541 17.5061 4.4698C17.3991 4.21462 17.2756 4.04176 17.1851 3.79481C17.0945 3.54786 17.0287 3.482 16.9052 3.09511C16.8229 2.85639 16.7077 2.61768 16.6171 2.37072C16.4816 1.62903 16.168 0.931325 15.7034 0.337499C15.366 0.0576218 15.1684 0.107012 14.9626 0H14.3947C14.0736 0.139939 13.9419 0.0823168 13.6127 0.312804C13.3884 0.465981 13.191 0.655105 13.0283 0.872558C11.8841 2.3131 11.5713 3.482 10.6988 4.75791Z" fill="#BCB7B4"/>
<path fill-rule="evenodd" clip-rule="evenodd" d="M19.2347 23.9624C21.2102 20.11 19.1689 17.3112 15.58 16.5539C14.1148 16.2493 11.7771 16.0435 10.707 14.9076C10.6407 14.8256 10.5631 14.7536 10.4766 14.6935C10.8533 15.3806 11.4265 15.9395 12.1228 16.2987C13.8843 17.3277 16.8394 17.1219 18.0165 18.7682C19.0042 20.11 19.0207 21.9703 16.6994 24.1188C13.7938 26.8106 8.11416 27.4115 5.17557 25.263C4.92093 25.0546 4.69163 24.817 4.49237 24.5551C3.04365 23.0487 3.49638 19.756 4.17958 17.6899C4.30964 17.4076 4.45528 17.1328 4.61584 16.8667C4.60094 16.7853 4.57891 16.7055 4.54999 16.628V16.5457V16.4633C4.54999 16.3893 4.54999 16.274 4.54999 16.1999C4.54999 16.1258 4.50883 16.0106 4.49237 15.9118C4.31365 14.4834 4.38608 13.0348 4.70638 11.6313L3.62808 12.792C3.11029 13.4356 2.63463 14.112 2.20406 14.817C0.491936 17.5829 -0.504057 20.9743 0.261458 23.9377C0.362267 24.3328 0.49722 24.7184 0.664794 25.0901C0.86337 25.534 1.11192 25.9538 1.40561 26.3414L2.17936 27.1645L2.87902 27.6996C7.08524 30.5148 16.3867 29.5353 19.2347 23.9789" fill="#BCB7B4"/>
<path fill-rule="evenodd" clip-rule="evenodd" d="M64.8857 5.21069V9.91922C65.6348 9.78751 66.4826 9.09605 66.4826 7.60611C66.4826 6.11618 65.6512 5.32594 64.8857 5.21069Z" fill="#BCB7B4"/>
<path fill-rule="evenodd" clip-rule="evenodd" d="M94.6585 4.98024C94.4098 4.97414 94.1613 4.99623 93.9177 5.04609V7.3345C94.1157 7.37199 94.3171 7.38855 94.5185 7.38389C95.4734 7.38389 96.066 6.90645 96.066 6.11621C96.066 5.32597 95.5228 4.98024 94.6585 4.98024Z" fill="#BCB7B4"/>
<path fill-rule="evenodd" clip-rule="evenodd" d="M61.6261 7.62258C61.5817 8.12939 61.7152 8.63584 62.0036 9.05493C62.292 9.47403 62.7173 9.77962 63.2065 9.91922V5.21069C62.4822 5.33417 61.6261 6.09148 61.6261 7.62258Z" fill="#BCB7B4"/>
<path fill-rule="evenodd" clip-rule="evenodd" d="M140.812 1.21817H20.206C20.3377 1.55567 20.4365 1.91787 20.5435 2.22244C20.6505 2.52701 20.7328 2.68341 20.8069 2.9139C20.9304 3.2761 20.955 3.2514 21.0785 3.57244C21.202 3.89347 21.2761 3.95932 21.3831 4.19804C21.7324 4.93117 22.1198 5.64556 22.5437 6.33828C22.6013 6.44529 22.6589 6.52761 22.7248 6.63462L23.087 7.21084C23.7372 8.23157 24.3711 9.09589 25.0049 10.0672C25.2518 10.4377 25.4905 10.8492 25.7457 11.2032C26.3467 12.0879 26.8726 13.0213 27.3179 13.9937H140.812C142.528 14.0224 144.186 13.3683 145.421 12.1751C146.656 10.982 147.366 9.34745 147.397 7.63066C147.388 6.77639 147.211 5.93225 146.875 5.14683C146.538 4.36142 146.05 3.65024 145.438 3.05423C144.826 2.45823 144.102 1.98917 143.308 1.67406C142.514 1.35896 141.666 1.20402 140.812 1.21817ZM64.8857 11.1456V11.7794H63.2395V11.1456C62.3289 11.1135 61.4668 10.7273 60.8366 10.0694C60.2063 9.41143 59.8576 8.53354 59.8646 7.62242C59.8705 6.70056 60.2238 5.81482 60.8539 5.14194C61.484 4.46906 62.3447 4.05853 63.2641 3.99225V3.39957H64.9104V3.99225C65.8283 4.02848 66.6963 4.41933 67.3319 5.08257C67.9675 5.7458 68.321 6.62972 68.3182 7.54834C68.3192 8.47454 67.9629 9.36542 67.3235 10.0355C66.6841 10.7056 65.8109 11.1032 64.8857 11.1456ZM73.4381 8.23157C73.316 8.73831 73.2552 9.25788 73.257 9.77912V11.4255H71.4296V9.77089C71.4329 9.25519 71.3916 8.74016 71.3062 8.23157C70.9934 6.58523 70.2032 5.32578 68.8368 5.0706L69.1084 3.62183C69.9818 3.65682 70.8078 4.02851 71.4132 4.65902C72.0221 5.35652 72.3812 6.23704 72.4339 7.16145H72.5162C72.6319 6.26134 73.0229 5.41898 73.6356 4.74957C74.1804 4.1465 74.9211 3.75574 75.7264 3.64652L76.0145 5.12822C75.3586 5.38694 74.7787 5.80698 74.3283 6.34946C73.8779 6.89193 73.5717 7.53929 73.4381 8.23157ZM82.3609 5.18585H80.1878V11.4584H78.3851V5.18585H76.245V3.72061H82.3609V5.18585ZM90.9461 11.4584H87.4396V10.4294C87.9146 10.0841 88.2989 9.62903 88.5597 9.10295C88.8206 8.57688 88.9503 7.99548 88.9377 7.4084C88.9377 6.09956 88.1969 4.9389 86.9622 4.9389C85.7275 4.9389 84.9208 6.04194 84.9208 7.4084C84.9119 7.99574 85.0441 8.57664 85.3062 9.10232C85.5683 9.628 85.9527 10.0831 86.4271 10.4294V11.4584H82.8959V10.1331H84.4681V10.0919C84.0271 9.75366 83.6694 9.31884 83.4226 8.82083C83.1757 8.32283 83.0462 7.7749 83.0441 7.21907C83.0519 6.71777 83.1616 6.2233 83.3665 5.76574C83.5715 5.30818 83.8674 4.89711 84.2362 4.55752C84.605 4.21794 85.0391 3.95695 85.512 3.79043C85.9848 3.62391 86.4867 3.55534 86.9869 3.5889C87.4698 3.55269 87.955 3.61644 88.4122 3.77617C88.8694 3.9359 89.2887 4.18818 89.6441 4.51725C89.9994 4.84632 90.2831 5.24512 90.4773 5.68875C90.6716 6.13237 90.7724 6.61129 90.7733 7.0956C90.7692 7.6704 90.638 8.23719 90.3889 8.75525C90.1399 9.27331 89.7792 9.72979 89.3328 10.0919V10.1331H90.9297L90.9461 11.4584ZM97.1279 7.91053C96.3954 8.49666 95.4714 8.79 94.535 8.7337C94.3045 8.7337 94.0905 8.7337 93.9259 8.7337V11.4995H92.1397V3.81939C92.9573 3.70139 93.7831 3.64908 94.6091 3.66298C95.4782 3.58564 96.348 3.80311 97.0785 4.28036C97.3447 4.49584 97.5575 4.76991 97.7002 5.0812C97.843 5.39248 97.9119 5.73255 97.9016 6.07487C97.9072 6.4178 97.8413 6.75814 97.7081 7.07418C97.5748 7.39023 97.3773 7.67506 97.1279 7.91053ZM100.807 11.4584H99.0046V3.72061H100.807V11.4584ZM107.113 11.4584L106.495 9.46632H104.223L103.655 11.4584H101.787L104.256 3.72061H106.619L109.088 11.4584H107.113Z" fill="#BCB7B4"/>
<path fill-rule="evenodd" clip-rule="evenodd" d="M105.302 5.02954C105.186 5.48228 105.063 6.07496 104.939 6.51948L104.462 8.16581H106.182L105.688 6.51948C105.557 6.0585 105.417 5.48228 105.302 5.02954Z" fill="#BCB7B4"/>
<path d="M136.177 27.7985L139.47 23.7567L136.358 19.8137V19.7561H141.948V17.3689H132.572V19.2622L136.293 23.872L132.358 28.6216V30.268H142.491V27.8726H136.177V27.7985ZM119.509 17.3689V30.268H122.522V24.868H127.46V30.268H130.448V17.3689H127.46V22.3079H122.522V17.3689H119.509ZM109.022 27.8726L110.907 22.3079C111.187 21.4848 111.475 20.3323 111.64 19.7232H111.714C111.911 20.5052 112.249 21.6329 112.537 22.4808L114.414 27.8726H109.022ZM105.771 30.268H117.838V28.811L113.665 17.3689H110.026L105.771 28.811V30.268ZM101.145 17.3689V30.268H104.157V17.3689H101.145ZM99.5973 30.268L95.3993 17.3689H91.5306L87.4725 30.268H90.6251L92.7241 22.5549C92.9464 21.6576 93.1439 20.6781 93.3332 19.7808C93.5555 20.6616 93.786 21.6329 94.0247 22.5302L96.2883 30.268H99.5973ZM74.9033 17.3689V30.268H77.9159V24.868H82.8547V30.268H85.8427V17.3689H82.8547V22.3079H77.9159V17.3689H74.9033ZM69.2977 17.3689V30.268H72.3022V17.3689H69.2977ZM58.4406 30.268V26.3826C58.4406 24.2753 58.4406 22.4561 58.3171 20.7522H58.383C59.0673 22.3091 59.8339 23.8287 60.6795 25.3043L63.5193 30.2844H66.6719V17.3689H63.8733V21.139C63.8583 22.9342 63.9434 24.7287 64.1284 26.5143H64.0708C63.4526 24.9924 62.7293 23.5154 61.906 22.0939L59.1567 17.3689H55.6502V30.268H58.4406ZM46.2664 24.7692L47.0484 22.0363C47.2706 21.2872 47.4682 20.3159 47.6658 19.5668C47.8633 20.3323 48.102 21.2872 48.3407 22.0363L49.1639 24.7692H46.2664ZM49.633 26.9506L50.6537 30.2433H53.8804L49.7647 17.3442H45.8302L41.7803 30.268H44.8836L45.8302 26.9753L49.633 26.9506ZM32.2567 27.8726L34.1417 22.3079C34.4215 21.4848 34.7096 20.3323 34.8742 19.7232H34.9483C35.1459 20.5052 35.4834 21.6329 35.7715 22.4808L37.64 27.8726H32.2567ZM29.0053 30.268H41.0724V28.811L36.8992 17.3689H33.2609L29.0053 28.811V30.268Z" fill="#BCB7B4"/>
</svg>
